<svg width="153" height="135" viewBox="0 0 153 135" fill="none" xmlns="http://www.w3.org/2000/svg">
<path d="M72.9438 7.58982C70.4135 4.41001 65.3479 5.41679 64.2258 9.32253L58.9819 27.5751C58.3199 29.8792 56.1157 31.3892 53.7281 31.1743L25.0165 28.5901C21.154 28.2425 18.3833 32.2336 20.0593 35.7308L30.9744 58.5074C32.0222 60.6939 31.3503 63.3171 29.3803 64.7306L9.15892 79.2401C5.63596 81.7679 6.78058 87.2752 11.019 88.19L38.1698 94.0496C40.4717 94.5463 42.115 96.5821 42.115 98.937V124.316C42.115 128.557 47.0621 130.872 50.3182 128.156L70.7691 111.092C72.562 109.596 75.1515 109.541 77.0072 110.958L101.353 129.552C104.467 131.93 108.981 129.966 109.364 126.068L111.719 102.113C111.993 99.3273 114.501 97.309 117.281 97.637L140.235 100.345C144.764 100.88 147.586 95.5695 144.609 92.1155L129.312 74.3676C127.419 72.1721 127.784 68.8329 130.106 67.098L143.898 56.792C147.382 54.188 146.11 48.6842 141.836 47.8742L124.038 44.5009C121.333 43.9884 119.552 41.387 120.052 38.6805L123.892 17.881C124.659 13.7295 120.253 10.5552 116.558 12.5963L92.7266 25.759C90.591 26.9386 87.9159 26.4047 86.3968 24.4956L72.9438 7.58982Z" fill="#DF754A" stroke="white"/>
<circle cx="80" cy="67" r="19" fill="#FAD148"/>
</svg>
