<svg width="111" height="117" viewBox="0 0 111 117" fill="none" xmlns="http://www.w3.org/2000/svg">
<path d="M38.7689 7.07605L33.9599 10.6026C31.5173 12.3939 30.3581 15.4551 31.0015 18.415C32.0406 23.1945 28.3997 27.7119 23.5086 27.7119H18.5168C16.3257 27.7119 14.1786 28.3276 12.3205 29.4889L11.2116 30.182C7.44316 32.5373 4.80365 36.3331 3.90752 40.6857L2.56009 47.2304C1.59634 51.9114 3.23156 56.7484 6.838 59.8844C11.6604 64.0778 12.797 71.1184 9.539 76.6162L8.31126 78.688C6.37346 81.9581 5.65344 85.8076 6.27833 89.557L7.46004 96.6473C8.42929 102.463 12.1629 107.445 17.4722 110.008C23.2878 112.816 30.1571 112.322 35.5111 108.711L38.2668 106.852C47.1783 100.842 59.0034 101.51 67.1814 108.486L71.0939 111.823C73.152 113.578 75.7684 114.542 78.4734 114.542C82.3808 114.542 86.0145 112.536 88.0964 109.23L90.8234 104.899C93.4798 100.68 93.3044 95.2694 90.3803 91.2314C86.0798 85.2926 87.9464 76.9296 94.364 73.383L98.7011 70.9862C103.118 68.5455 106.184 64.228 107.033 59.2539L107.876 54.3165C109.17 46.7394 105.917 39.1052 99.5566 34.7891L97.6814 33.5167C94.5312 31.379 90.6547 30.5956 86.9216 31.3422C79.7518 32.7762 72.6649 28.5321 70.5445 21.5346L69.84 19.21C68.7293 15.5447 66.4051 12.3661 63.2491 10.1963L58.2783 6.77888C52.3736 2.71939 44.5473 2.83861 38.7689 7.07605Z" fill="#58AE7D" stroke="#58AE7D" stroke-width="4" stroke-linecap="round"/>
<path d="M60.2801 51.0322L56.2958 53.0244C54.029 54.1578 51.3724 54.253 49.0268 53.2934C43.9359 51.2108 38.1794 54.2726 37.1007 59.6661C36.4832 62.7537 37.5716 65.9349 39.951 67.9971L42.5537 70.2527C44.3227 71.7859 45.339 74.0115 45.339 76.3525V77.2385C45.339 79.3837 46.4111 81.3871 48.1961 82.5771C50.8103 84.3199 54.302 83.9133 56.4458 81.6164L59.1931 78.6728C60.4146 77.3641 62.4327 77.2035 63.8458 78.3025C65.4718 79.5672 67.836 79.1394 68.9156 77.385L70.068 75.5124C71.1419 73.7672 71.1419 71.5661 70.068 69.821L69.1487 68.3271C67.7459 66.0475 67.6207 63.2049 68.8178 60.8108L69.2314 59.9835C70.7163 57.0138 69.7915 53.4041 67.0616 51.5142C65.0586 50.1275 62.4591 49.9428 60.2801 51.0322Z" fill="#328E5F" stroke="#328E5F" stroke-width="4" stroke-linecap="round"/>
</svg>
