<svg width="193" height="190" viewBox="0 0 193 190" fill="none" xmlns="http://www.w3.org/2000/svg">
<path d="M100.347 172.384L169.924 88.4884C178.03 78.7144 180.006 65.2345 175.045 53.5455C164.89 29.6157 132.712 25.5044 116.866 46.1122L98.6335 69.8246C97.5845 71.1888 95.5131 71.1436 94.5246 69.7349L79.0793 47.723C63.9282 26.1304 31.2216 28.5033 19.3459 52.0568C13.068 64.5078 14.804 79.5008 23.7609 90.1879L92.6657 172.404C94.6709 174.796 98.3538 174.786 100.347 172.384Z" fill="#F85656" stroke="#F85656" stroke-width="30"/>
<path d="M110.86 92.3302C110.141 90.6212 110.215 88.6799 111.063 87.0313C113.397 82.4949 119.888 82.5061 122.215 87.0459C123.169 88.9051 123.134 91.119 122.12 92.9462C119.584 97.52 112.888 97.151 110.86 92.3302Z" fill="white"/>
<path d="M68.01 92.2603C67.291 90.5513 67.365 88.6101 68.2133 86.9614C70.5474 82.425 77.0378 82.4362 79.3653 86.976C80.3186 88.8353 80.2834 91.0492 79.2701 92.8764C76.7336 97.4502 70.0382 97.0811 68.01 92.2603Z" fill="white"/>
<path d="M109.121 106L108.419 106.531C100.287 112.674 89.0076 112.455 81.1211 106V106" stroke="white" stroke-width="5" stroke-linecap="round"/>
</svg>
