<svg width="121" height="132" viewBox="0 0 121 132" fill="none" xmlns="http://www.w3.org/2000/svg">
<path d="M45.8776 8.3155L51.4408 9.06727C62.4068 10.5492 73.033 13.9211 82.8472 19.0331L86.0087 20.6799C88.3678 21.9087 90.6264 23.3217 92.7634 24.9056V24.9056C111.021 38.4383 118.017 62.4836 109.868 83.6988L106.413 92.6963C97.9601 114.703 75.1073 127.643 51.8875 123.57V123.57C44.8401 122.334 38.1462 119.578 32.2711 115.494L26.2288 111.294C7.27813 98.1213 2.32943 72.2183 15.0894 52.987L17.661 49.111C27.799 33.8314 47.5916 28.2704 64.204 36.0342L72.0825 39.7162C86.8313 46.6091 92.8903 64.3833 85.4224 78.8495L83.1313 83.2878C77.6646 93.8774 65.0557 98.592 53.9824 94.1869L45.3442 90.7506C36.7885 87.347 33.2376 77.1497 37.8288 69.1682L40.4748 64.5681C45.335 56.1189 57.6369 56.4528 62.0315 65.1532V65.1532" stroke="#B8C76A" stroke-width="15" stroke-linecap="round"/>
</svg>
