<svg width="154" height="168" viewBox="0 0 154 168" fill="none" xmlns="http://www.w3.org/2000/svg">
<path d="M57.3668 7.50122L69.1846 9.09821C80.6391 10.6461 91.7386 14.1682 101.99 19.5079L110.175 23.7715C113.279 25.3885 116.251 27.2477 119.063 29.332V29.332C143.089 47.1395 152.294 78.7805 141.572 106.697L137.024 118.537C125.902 147.496 95.8299 164.524 65.2752 159.164V159.164C56.0015 157.537 47.1931 153.911 39.4621 148.537L31.5111 143.01C6.57402 125.676 0.0620724 91.5904 16.8528 66.2841L20.2368 61.1837C33.5773 41.0774 59.6223 33.7598 81.4823 43.9761L91.8495 48.8212C111.257 57.8915 119.23 81.2804 109.404 100.316L106.389 106.157C99.1951 120.092 82.6031 126.295 68.0318 120.499L56.6649 115.977C45.4065 111.498 40.7339 98.0797 46.7754 87.5768L50.2573 81.5236C56.6527 70.4053 72.8407 70.8447 78.6236 82.2936V82.2936" stroke="#F8D756" stroke-width="15" stroke-linecap="round"/>
</svg>
