<svg width="230" height="211" viewBox="0 0 230 211" fill="none" xmlns="http://www.w3.org/2000/svg">
<path d="M122.652 9.46217C125.058 5.83876 130.622 6.80176 131.67 11.0228L141.079 48.9197C141.755 51.6404 144.535 53.2742 147.24 52.5408L193.782 39.9239C197.858 38.8192 201.383 42.951 199.65 46.8016L178.947 92.8074C177.957 95.0086 178.68 97.6033 180.667 98.9743L219.372 125.686C223.131 128.281 221.73 134.142 217.204 134.756L168.929 141.302C166.296 141.659 164.402 144.014 164.618 146.663L168.707 196.818C169.084 201.447 163.497 204.045 160.201 200.773L123.414 164.261C121.514 162.375 118.466 162.32 116.499 164.137L74.903 202.556C71.7005 205.513 66.5105 203.242 66.5105 198.883V150.595C66.5105 147.58 63.8631 145.251 60.8733 145.635L15.0231 151.527C10.2426 152.141 7.44612 146.302 10.9214 142.962L43.4028 111.75C45.5971 109.641 45.4147 106.078 43.0166 104.204L11.4433 79.5379C7.69602 76.6103 9.76624 70.5977 14.5216 70.5977H50.8548C53.9756 70.5977 56.3338 67.7703 55.7736 64.7002L49.3064 29.2603C48.576 25.2578 52.6771 22.1051 56.3573 23.8401L95.6719 42.3741C97.9163 43.4322 100.597 42.6842 101.97 40.6169L122.652 9.46217Z" fill="#C586D2"/>
<path d="M115.186 116.672V116.672C109.532 123.301 99.2892 123.301 93.6349 116.672V116.672" stroke="white" stroke-width="10" stroke-linecap="round"/>
<path d="M123.36 93.1041C123.36 90.1139 120.936 87.6898 117.946 87.6898V87.6898V87.6898C114.938 87.6898 112.483 90.0957 112.421 93.103L112.328 97.6664C112.265 100.757 114.753 103.296 117.844 103.296V103.296C120.89 103.296 123.36 100.826 123.36 97.779V93.1041Z" fill="white"/>
<path d="M96.6074 93.1041C96.6074 90.1139 94.1834 87.6898 91.1932 87.6898V87.6898V87.6898C88.1852 87.6898 85.7298 90.0957 85.6684 93.103L85.5753 97.6664C85.5122 100.757 88 103.296 91.0908 103.296V103.296C94.1375 103.296 96.6074 100.826 96.6074 97.779V93.1041Z" fill="white"/>
</svg>
