<svg width="230" height="211" viewBox="0 0 230 211" fill="none" xmlns="http://www.w3.org/2000/svg">
<path d="M107.348 9.46217C104.942 5.83876 99.3775 6.80176 98.3295 11.0228L88.9206 48.9197C88.2452 51.6404 85.4654 53.2742 82.7598 52.5408L36.2177 39.9239C32.1424 38.8192 28.6171 42.951 30.3499 46.8016L51.0525 92.8074C52.0431 95.0086 51.3196 97.6033 49.3329 98.9743L10.6279 125.686C6.86861 128.281 8.26987 134.142 12.7961 134.756L61.0706 141.302C63.7042 141.659 65.5982 144.014 65.3822 146.663L61.2935 196.818C60.9161 201.447 66.5031 204.045 69.7992 200.773L106.586 164.261C108.486 162.375 111.534 162.32 113.501 164.137L155.097 202.556C158.3 205.513 163.49 203.242 163.49 198.883V150.595C163.49 147.58 166.137 145.251 169.127 145.635L214.977 151.527C219.757 152.141 222.554 146.302 219.079 142.962L186.597 111.75C184.403 109.641 184.585 106.078 186.983 104.204L218.557 79.5378C222.304 76.6103 220.234 70.5977 215.478 70.5977H179.145C176.024 70.5977 173.666 67.7703 174.226 64.7001L180.694 29.2603C181.424 25.2578 177.323 22.1051 173.643 23.8401L134.328 42.3741C132.084 43.4322 129.403 42.6842 128.03 40.6169L107.348 9.46217Z" fill="#AFC5E0"/>
<path d="M114.814 116.672V116.672C120.468 123.301 130.711 123.301 136.365 116.672V116.672" stroke="white" stroke-width="10" stroke-linecap="round"/>
<path d="M106.64 93.1041C106.64 90.1139 109.064 87.6898 112.054 87.6898C115.062 87.6898 117.517 90.0957 117.579 93.103L117.672 97.6664C117.735 100.757 115.247 103.296 112.156 103.296C109.11 103.296 106.64 100.826 106.64 97.779V93.1041Z" fill="white"/>
<path d="M133.393 93.1041C133.393 90.1139 135.817 87.6898 138.807 87.6898C141.815 87.6898 144.27 90.0957 144.332 93.103L144.425 97.6664C144.488 100.757 142 103.296 138.909 103.296C135.862 103.296 133.393 100.826 133.393 97.779V93.1041Z" fill="white"/>
</svg>
