<svg width="190" height="230" viewBox="0 0 239 257" fill="none" xmlns="http://www.w3.org/2000/svg">
<path d="M116.348 55.4622C113.942 51.8388 108.378 52.8018 107.33 57.0228L97.9206 94.9197C97.2452 97.6404 94.4654 99.2742 91.7598 98.5408L45.2177 85.9239C41.1424 84.8192 37.6171 88.951 39.3499 92.8016L60.0525 138.807C61.0431 141.009 60.3196 143.603 58.3329 144.974L19.6279 171.686C15.8686 174.281 17.2699 180.142 21.7961 180.756L70.0706 187.302C72.7042 187.659 74.5982 190.014 74.3822 192.663L70.2935 242.818C69.9161 247.447 75.5031 250.045 78.7992 246.773L115.586 210.261C117.486 208.375 120.534 208.32 122.501 210.137L164.097 248.556C167.3 251.513 172.49 249.242 172.49 244.883V196.595C172.49 193.58 175.137 191.251 178.127 191.635L223.977 197.527C228.757 198.141 231.554 192.302 228.079 188.962L195.597 157.75C193.403 155.641 193.585 152.078 195.983 150.204L227.557 125.538C231.304 122.61 229.234 116.598 224.478 116.598H188.145C185.024 116.598 182.666 113.77 183.226 110.7L189.694 75.2603C190.424 71.2578 186.323 68.1051 182.643 69.8401L143.328 88.3741C141.084 89.4322 138.403 88.6842 137.03 86.6169L116.348 55.4622Z" fill="#AFC5E0"/>
<path d="M123.814 162.672V162.672C129.468 169.301 139.711 169.301 145.365 162.672V162.672" stroke="white" stroke-width="10" stroke-linecap="round"/>
<path d="M115.64 139.104C115.64 136.114 118.064 133.69 121.054 133.69C124.062 133.69 126.517 136.096 126.579 139.103L126.672 143.666C126.735 146.757 124.247 149.296 121.156 149.296C118.11 149.296 115.64 146.826 115.64 143.779V139.104Z" fill="white"/>
<path d="M142.393 139.104C142.393 136.114 144.817 133.69 147.807 133.69C150.815 133.69 153.27 136.096 153.332 139.103L153.425 143.666C153.488 146.757 151 149.296 147.909 149.296C144.862 149.296 142.393 146.826 142.393 143.779V139.104Z" fill="white"/>
<rect width="88.3109" height="66.3619" rx="20" fill="#FAFFD1"/>
<ellipse cx="96.3824" cy="68.5161" rx="2.37395" ry="2.90323" fill="#FAFFD1"/>
<ellipse cx="85.3739" cy="86.9032" rx="2.37395" ry="2.90323" fill="#FAFFD1"/>
<ellipse cx="82.3739" cy="106.903" rx="2.37395" ry="2.90323" fill="#FAFFD1"/>
<path d="M9.528 17V11.4H11.832C12.184 11.4 12.4933 11.472 12.76 11.616C13.032 11.7547 13.2427 11.952 13.392 12.208C13.5467 12.464 13.624 12.768 13.624 13.12V13.232C13.624 13.5787 13.544 13.8827 13.384 14.144C13.2293 14.4 13.016 14.6 12.744 14.744C12.4773 14.8827 12.1733 14.952 11.832 14.952H10.584V17H9.528ZM10.584 13.992H11.728C11.9787 13.992 12.1813 13.9227 12.336 13.784C12.4907 13.6453 12.568 13.456 12.568 13.216V13.136C12.568 12.896 12.4907 12.7067 12.336 12.568C12.1813 12.4293 11.9787 12.36 11.728 12.36H10.584V13.992ZM15.9658 17.112C15.4485 17.112 15.0245 17 14.6938 16.776C14.3631 16.552 14.1631 16.232 14.0938 15.816L15.0218 15.576C15.0591 15.7627 15.1205 15.9093 15.2058 16.016C15.2965 16.1227 15.4058 16.2 15.5338 16.248C15.6671 16.2907 15.8111 16.312 15.9658 16.312C16.2005 16.312 16.3738 16.272 16.4858 16.192C16.5978 16.1067 16.6538 16.0027 16.6538 15.88C16.6538 15.7573 16.6005 15.664 16.4938 15.6C16.3871 15.5307 16.2165 15.4747 15.9818 15.432L15.7578 15.392C15.4805 15.3387 15.2271 15.2667 14.9978 15.176C14.7685 15.08 14.5845 14.9493 14.4458 14.784C14.3071 14.6187 14.2378 14.4053 14.2378 14.144C14.2378 13.7493 14.3818 13.448 14.6698 13.24C14.9578 13.0267 15.3365 12.92 15.8058 12.92C16.2485 12.92 16.6165 13.0187 16.9098 13.216C17.2031 13.4133 17.3951 13.672 17.4858 13.992L16.5498 14.28C16.5071 14.0773 16.4191 13.9333 16.2858 13.848C16.1578 13.7627 15.9978 13.72 15.8058 13.72C15.6138 13.72 15.4671 13.7547 15.3658 13.824C15.2645 13.888 15.2138 13.9787 15.2138 14.096C15.2138 14.224 15.2671 14.32 15.3738 14.384C15.4805 14.4427 15.6245 14.488 15.8058 14.52L16.0298 14.56C16.3285 14.6133 16.5978 14.6853 16.8378 14.776C17.0831 14.8613 17.2751 14.9867 17.4138 15.152C17.5578 15.312 17.6298 15.5307 17.6298 15.808C17.6298 16.224 17.4778 16.5467 17.1738 16.776C16.8751 17 16.4725 17.112 15.9658 17.112ZM20.1611 17.112C19.6438 17.112 19.2198 17 18.8891 16.776C18.5585 16.552 18.3585 16.232 18.2891 15.816L19.2171 15.576C19.2545 15.7627 19.3158 15.9093 19.4011 16.016C19.4918 16.1227 19.6011 16.2 19.7291 16.248C19.8625 16.2907 20.0065 16.312 20.1611 16.312C20.3958 16.312 20.5691 16.272 20.6811 16.192C20.7931 16.1067 20.8491 16.0027 20.8491 15.88C20.8491 15.7573 20.7958 15.664 20.6891 15.6C20.5825 15.5307 20.4118 15.4747 20.1771 15.432L19.9531 15.392C19.6758 15.3387 19.4225 15.2667 19.1931 15.176C18.9638 15.08 18.7798 14.9493 18.6411 14.784C18.5025 14.6187 18.4331 14.4053 18.4331 14.144C18.4331 13.7493 18.5771 13.448 18.8651 13.24C19.1531 13.0267 19.5318 12.92 20.0011 12.92C20.4438 12.92 20.8118 13.0187 21.1051 13.216C21.3985 13.4133 21.5905 13.672 21.6811 13.992L20.7451 14.28C20.7025 14.0773 20.6145 13.9333 20.4811 13.848C20.3531 13.7627 20.1931 13.72 20.0011 13.72C19.8091 13.72 19.6625 13.7547 19.5611 13.824C19.4598 13.888 19.4091 13.9787 19.4091 14.096C19.4091 14.224 19.4625 14.32 19.5691 14.384C19.6758 14.4427 19.8198 14.488 20.0011 14.52L20.2251 14.56C20.5238 14.6133 20.7931 14.6853 21.0331 14.776C21.2785 14.8613 21.4705 14.9867 21.6091 15.152C21.7531 15.312 21.8251 15.5307 21.8251 15.808C21.8251 16.224 21.6731 16.5467 21.3691 16.776C21.0705 17 20.6678 17.112 20.1611 17.112ZM24.3564 17.112C23.8391 17.112 23.4151 17 23.0844 16.776C22.7538 16.552 22.5538 16.232 22.4844 15.816L23.4124 15.576C23.4498 15.7627 23.5111 15.9093 23.5964 16.016C23.6871 16.1227 23.7964 16.2 23.9244 16.248C24.0578 16.2907 24.2018 16.312 24.3564 16.312C24.5911 16.312 24.7644 16.272 24.8764 16.192C24.9884 16.1067 25.0444 16.0027 25.0444 15.88C25.0444 15.7573 24.9911 15.664 24.8844 15.6C24.7778 15.5307 24.6071 15.4747 24.3724 15.432L24.1484 15.392C23.8711 15.3387 23.6178 15.2667 23.3884 15.176C23.1591 15.08 22.9751 14.9493 22.8364 14.784C22.6978 14.6187 22.6284 14.4053 22.6284 14.144C22.6284 13.7493 22.7724 13.448 23.0604 13.24C23.3484 13.0267 23.7271 12.92 24.1964 12.92C24.6391 12.92 25.0071 13.0187 25.3004 13.216C25.5938 13.4133 25.7858 13.672 25.8764 13.992L24.9404 14.28C24.8978 14.0773 24.8098 13.9333 24.6764 13.848C24.5484 13.7627 24.3884 13.72 24.1964 13.72C24.0044 13.72 23.8578 13.7547 23.7564 13.824C23.6551 13.888 23.6044 13.9787 23.6044 14.096C23.6044 14.224 23.6578 14.32 23.7644 14.384C23.8711 14.4427 24.0151 14.488 24.1964 14.52L24.4204 14.56C24.7191 14.6133 24.9884 14.6853 25.2284 14.776C25.4738 14.8613 25.6658 14.9867 25.8044 15.152C25.9484 15.312 26.0204 15.5307 26.0204 15.808C26.0204 16.224 25.8684 16.5467 25.5644 16.776C25.2658 17 24.8631 17.112 24.3564 17.112ZM27.5358 17.112C27.3224 17.112 27.1411 17.0427 26.9918 16.904C26.8478 16.76 26.7758 16.576 26.7758 16.352C26.7758 16.128 26.8478 15.9467 26.9918 15.808C27.1411 15.664 27.3224 15.592 27.5358 15.592C27.7544 15.592 27.9358 15.664 28.0798 15.808C28.2238 15.9467 28.2958 16.128 28.2958 16.352C28.2958 16.576 28.2238 16.76 28.0798 16.904C27.9358 17.0427 27.7544 17.112 27.5358 17.112ZM29.9186 17.112C29.7052 17.112 29.5239 17.0427 29.3746 16.904C29.2306 16.76 29.1586 16.576 29.1586 16.352C29.1586 16.128 29.2306 15.9467 29.3746 15.808C29.5239 15.664 29.7052 15.592 29.9186 15.592C30.1372 15.592 30.3186 15.664 30.4626 15.808C30.6066 15.9467 30.6786 16.128 30.6786 16.352C30.6786 16.576 30.6066 16.76 30.4626 16.904C30.3186 17.0427 30.1372 17.112 29.9186 17.112ZM9.368 25V24.072H10.104V20.328H9.368V19.4H11.672C12.424 19.4 12.9947 19.592 13.384 19.976C13.7787 20.3547 13.976 20.92 13.976 21.672V22.728C13.976 23.48 13.7787 24.048 13.384 24.432C12.9947 24.8107 12.424 25 11.672 25H9.368ZM11.16 24.04H11.688C12.1147 24.04 12.4267 23.928 12.624 23.704C12.8213 23.48 12.92 23.1653 12.92 22.76V21.64C12.92 21.2293 12.8213 20.9147 12.624 20.696C12.4267 20.472 12.1147 20.36 11.688 20.36H11.16V24.04ZM14.8881 25V21.032H15.8961V25H14.8881ZM15.3921 20.568C15.2108 20.568 15.0561 20.5093 14.9281 20.392C14.8055 20.2747 14.7441 20.12 14.7441 19.928C14.7441 19.736 14.8055 19.5813 14.9281 19.464C15.0561 19.3467 15.2108 19.288 15.3921 19.288C15.5788 19.288 15.7335 19.3467 15.8561 19.464C15.9788 19.5813 16.0401 19.736 16.0401 19.928C16.0401 20.12 15.9788 20.2747 15.8561 20.392C15.7335 20.5093 15.5788 20.568 15.3921 20.568ZM18.6131 25.112C18.2985 25.112 18.0025 25.0347 17.7251 24.88C17.4531 24.72 17.2345 24.488 17.0691 24.184C16.9038 23.88 16.8211 23.512 16.8211 23.08V22.952C16.8211 22.52 16.9038 22.152 17.0691 21.848C17.2345 21.544 17.4531 21.3147 17.7251 21.16C17.9971 21 18.2931 20.92 18.6131 20.92C18.8531 20.92 19.0531 20.9493 19.2131 21.008C19.3785 21.0613 19.5118 21.1307 19.6131 21.216C19.7145 21.3013 19.7918 21.392 19.8451 21.488H19.9891V19.4H20.9971V25H20.0051V24.52H19.8611C19.7705 24.6693 19.6291 24.8053 19.4371 24.928C19.2505 25.0507 18.9758 25.112 18.6131 25.112ZM18.9171 24.232C19.2265 24.232 19.4851 24.1333 19.6931 23.936C19.9011 23.7333 20.0051 23.44 20.0051 23.056V22.976C20.0051 22.592 19.9011 22.3013 19.6931 22.104C19.4905 21.9013 19.2318 21.8 18.9171 21.8C18.6078 21.8 18.3491 21.9013 18.1411 22.104C17.9331 22.3013 17.8291 22.592 17.8291 22.976V23.056C17.8291 23.44 17.9331 23.7333 18.1411 23.936C18.3491 24.1333 18.6078 24.232 18.9171 24.232ZM24.5779 26.6V25.72H26.7379C26.8873 25.72 26.9619 25.64 26.9619 25.48V24.48H26.8179C26.7753 24.5707 26.7086 24.6613 26.6179 24.752C26.5273 24.8427 26.4046 24.9173 26.2499 24.976C26.0953 25.0347 25.8979 25.064 25.6579 25.064C25.3486 25.064 25.0766 24.9947 24.8419 24.856C24.6126 24.712 24.4339 24.5147 24.3059 24.264C24.1779 24.0133 24.1139 23.7253 24.1139 23.4V21.032H25.1219V23.32C25.1219 23.6187 25.1939 23.8427 25.3379 23.992C25.4873 24.1413 25.6979 24.216 25.9699 24.216C26.2793 24.216 26.5193 24.1147 26.6899 23.912C26.8606 23.704 26.9459 23.416 26.9459 23.048V21.032H27.9539V25.704C27.9539 25.976 27.8739 26.192 27.7139 26.352C27.5539 26.5173 27.3406 26.6 27.0739 26.6H24.5779ZM30.9636 25.112C30.569 25.112 30.2143 25.032 29.8996 24.872C29.585 24.712 29.337 24.48 29.1556 24.176C28.9743 23.872 28.8836 23.5067 28.8836 23.08V22.952C28.8836 22.5253 28.9743 22.16 29.1556 21.856C29.337 21.552 29.585 21.32 29.8996 21.16C30.2143 21 30.569 20.92 30.9636 20.92C31.3583 20.92 31.713 21 32.0276 21.16C32.3423 21.32 32.5903 21.552 32.7716 21.856C32.953 22.16 33.0436 22.5253 33.0436 22.952V23.08C33.0436 23.5067 32.953 23.872 32.7716 24.176C32.5903 24.48 32.3423 24.712 32.0276 24.872C31.713 25.032 31.3583 25.112 30.9636 25.112ZM30.9636 24.216C31.273 24.216 31.529 24.1173 31.7316 23.92C31.9343 23.7173 32.0356 23.4293 32.0356 23.056V22.976C32.0356 22.6027 31.9343 22.3173 31.7316 22.12C31.5343 21.9173 31.2783 21.816 30.9636 21.816C30.6543 21.816 30.3983 21.9173 30.1956 22.12C29.993 22.3173 29.8916 22.6027 29.8916 22.976V23.056C29.8916 23.4293 29.993 23.7173 30.1956 23.92C30.3983 24.1173 30.6543 24.216 30.9636 24.216ZM35.4861 25.064C35.1767 25.064 34.9047 24.9947 34.6701 24.856C34.4407 24.712 34.2621 24.5147 34.1341 24.264C34.0061 24.0133 33.9421 23.7253 33.9421 23.4V21.032H34.9501V23.32C34.9501 23.6187 35.0221 23.8427 35.1661 23.992C35.3154 24.1413 35.5261 24.216 35.7981 24.216C36.1074 24.216 36.3474 24.1147 36.5181 23.912C36.6887 23.704 36.7741 23.416 36.7741 23.048V21.032H37.7821V25H36.7901V24.48H36.6461C36.5821 24.6133 36.4621 24.744 36.2861 24.872C36.1101 25 35.8434 25.064 35.4861 25.064ZM40.935 25V19.4H41.943V22.496H42.087L43.399 21.032H44.711L42.879 22.952L44.775 25H43.479L42.087 23.424H41.943V25H40.935ZM45.4506 25V21.032H46.4426V21.552H46.5866C46.6506 21.4133 46.7706 21.2827 46.9466 21.16C47.1226 21.032 47.3893 20.968 47.7466 20.968C48.056 20.968 48.3253 21.04 48.5546 21.184C48.7893 21.3227 48.9706 21.5173 49.0986 21.768C49.2266 22.0133 49.2906 22.3013 49.2906 22.632V25H48.2826V22.712C48.2826 22.4133 48.208 22.1893 48.0586 22.04C47.9146 21.8907 47.7066 21.816 47.4346 21.816C47.1253 21.816 46.8853 21.92 46.7146 22.128C46.544 22.3307 46.4586 22.616 46.4586 22.984V25H45.4506ZM52.2683 25.112C51.8736 25.112 51.519 25.032 51.2043 24.872C50.8896 24.712 50.6416 24.48 50.4603 24.176C50.279 23.872 50.1883 23.5067 50.1883 23.08V22.952C50.1883 22.5253 50.279 22.16 50.4603 21.856C50.6416 21.552 50.8896 21.32 51.2043 21.16C51.519 21 51.8736 20.92 52.2683 20.92C52.663 20.92 53.0176 21 53.3323 21.16C53.647 21.32 53.895 21.552 54.0763 21.856C54.2576 22.16 54.3483 22.5253 54.3483 22.952V23.08C54.3483 23.5067 54.2576 23.872 54.0763 24.176C53.895 24.48 53.647 24.712 53.3323 24.872C53.0176 25.032 52.663 25.112 52.2683 25.112ZM52.2683 24.216C52.5776 24.216 52.8336 24.1173 53.0363 23.92C53.239 23.7173 53.3403 23.4293 53.3403 23.056V22.976C53.3403 22.6027 53.239 22.3173 53.0363 22.12C52.839 21.9173 52.583 21.816 52.2683 21.816C51.959 21.816 51.703 21.9173 51.5003 22.12C51.2976 22.3173 51.1963 22.6027 51.1963 22.976V23.056C51.1963 23.4293 51.2976 23.7173 51.5003 23.92C51.703 24.1173 51.959 24.216 52.2683 24.216ZM55.5831 25L55.0231 21.032H56.0231L56.3751 24.32H56.5191L57.0311 21.032H58.6471L59.1591 24.32H59.3031L59.6551 21.032H60.6551L60.0951 25H58.4231L57.9111 21.712H57.7671L57.2551 25H55.5831ZM63.9998 26.6V25.72H66.1598C66.3091 25.72 66.3838 25.64 66.3838 25.48V24.48H66.2398C66.1971 24.5707 66.1305 24.6613 66.0398 24.752C65.9491 24.8427 65.8265 24.9173 65.6718 24.976C65.5171 25.0347 65.3198 25.064 65.0798 25.064C64.7705 25.064 64.4985 24.9947 64.2638 24.856C64.0345 24.712 63.8558 24.5147 63.7278 24.264C63.5998 24.0133 63.5358 23.7253 63.5358 23.4V21.032H64.5438V23.32C64.5438 23.6187 64.6158 23.8427 64.7598 23.992C64.9091 24.1413 65.1198 24.216 65.3918 24.216C65.7011 24.216 65.9411 24.1147 66.1118 23.912C66.2825 23.704 66.3678 23.416 66.3678 23.048V21.032H67.3758V25.704C67.3758 25.976 67.2958 26.192 67.1358 26.352C66.9758 26.5173 66.7625 26.6 66.4958 26.6H63.9998ZM70.3855 25.112C69.9908 25.112 69.6362 25.032 69.3215 24.872C69.0068 24.712 68.7588 24.48 68.5775 24.176C68.3962 23.872 68.3055 23.5067 68.3055 23.08V22.952C68.3055 22.5253 68.3962 22.16 68.5775 21.856C68.7588 21.552 69.0068 21.32 69.3215 21.16C69.6362 21 69.9908 20.92 70.3855 20.92C70.7802 20.92 71.1348 21 71.4495 21.16C71.7642 21.32 72.0122 21.552 72.1935 21.856C72.3748 22.16 72.4655 22.5253 72.4655 22.952V23.08C72.4655 23.5067 72.3748 23.872 72.1935 24.176C72.0122 24.48 71.7642 24.712 71.4495 24.872C71.1348 25.032 70.7802 25.112 70.3855 25.112ZM70.3855 24.216C70.6948 24.216 70.9508 24.1173 71.1535 23.92C71.3562 23.7173 71.4575 23.4293 71.4575 23.056V22.976C71.4575 22.6027 71.3562 22.3173 71.1535 22.12C70.9562 21.9173 70.7002 21.816 70.3855 21.816C70.0762 21.816 69.8202 21.9173 69.6175 22.12C69.4148 22.3173 69.3135 22.6027 69.3135 22.976V23.056C69.3135 23.4293 69.4148 23.7173 69.6175 23.92C69.8202 24.1173 70.0762 24.216 70.3855 24.216ZM74.9079 25.064C74.5986 25.064 74.3266 24.9947 74.0919 24.856C73.8626 24.712 73.6839 24.5147 73.5559 24.264C73.4279 24.0133 73.3639 23.7253 73.3639 23.4V21.032H74.3719V23.32C74.3719 23.6187 74.4439 23.8427 74.5879 23.992C74.7373 24.1413 74.9479 24.216 75.2199 24.216C75.5293 24.216 75.7693 24.1147 75.9399 23.912C76.1106 23.704 76.1959 23.416 76.1959 23.048V21.032H77.2039V25H76.2119V24.48H76.0679C76.0039 24.6133 75.8839 24.744 75.7079 24.872C75.5319 25 75.2653 25.064 74.9079 25.064ZM11.424 33.112C11.04 33.112 10.6907 33.032 10.376 32.872C10.0667 32.712 9.82133 32.48 9.64 32.176C9.45867 31.872 9.368 31.504 9.368 31.072V30.96C9.368 30.528 9.45867 30.16 9.64 29.856C9.82133 29.552 10.0667 29.32 10.376 29.16C10.6907 29 11.04 28.92 11.424 28.92C11.8027 28.92 12.128 28.9867 12.4 29.12C12.672 29.2533 12.8907 29.4373 13.056 29.672C13.2267 29.9013 13.3387 30.1627 13.392 30.456L12.416 30.664C12.3947 30.504 12.3467 30.36 12.272 30.232C12.1973 30.104 12.0907 30.0027 11.952 29.928C11.8187 29.8533 11.6507 29.816 11.448 29.816C11.2453 29.816 11.0613 29.8613 10.896 29.952C10.736 30.0373 10.608 30.168 10.512 30.344C10.4213 30.5147 10.376 30.7253 10.376 30.976V31.056C10.376 31.3067 10.4213 31.52 10.512 31.696C10.608 31.8667 10.736 31.9973 10.896 32.088C11.0613 32.1733 11.2453 32.216 11.448 32.216C11.752 32.216 11.9813 32.1387 12.136 31.984C12.296 31.824 12.3973 31.616 12.44 31.36L13.416 31.592C13.3467 31.8747 13.2267 32.1333 13.056 32.368C12.8907 32.5973 12.672 32.7787 12.4 32.912C12.128 33.0453 11.8027 33.112 11.424 33.112ZM15.4795 33.112C15.1968 33.112 14.9435 33.064 14.7195 32.968C14.4955 32.8667 14.3168 32.7227 14.1835 32.536C14.0555 32.344 13.9915 32.112 13.9915 31.84C13.9915 31.568 14.0555 31.3413 14.1835 31.16C14.3168 30.9733 14.4982 30.8347 14.7275 30.744C14.9622 30.648 15.2288 30.6 15.5275 30.6H16.6155V30.376C16.6155 30.1893 16.5568 30.0373 16.4395 29.92C16.3222 29.7973 16.1355 29.736 15.8795 29.736C15.6288 29.736 15.4422 29.7947 15.3195 29.912C15.1968 30.024 15.1168 30.1707 15.0795 30.352L14.1515 30.04C14.2155 29.8373 14.3168 29.6533 14.4555 29.488C14.5995 29.3173 14.7888 29.1813 15.0235 29.08C15.2635 28.9733 15.5542 28.92 15.8955 28.92C16.4182 28.92 16.8315 29.0507 17.1355 29.312C17.4395 29.5733 17.5915 29.952 17.5915 30.448V31.928C17.5915 32.088 17.6662 32.168 17.8155 32.168H18.1355V33H17.4635C17.2662 33 17.1035 32.952 16.9755 32.856C16.8475 32.76 16.7835 32.632 16.7835 32.472V32.464H16.6315C16.6102 32.528 16.5622 32.6133 16.4875 32.72C16.4128 32.8213 16.2955 32.912 16.1355 32.992C15.9755 33.072 15.7568 33.112 15.4795 33.112ZM15.6555 32.296C15.9382 32.296 16.1675 32.2187 16.3435 32.064C16.5248 31.904 16.6155 31.6933 16.6155 31.432V31.352H15.5995C15.4128 31.352 15.2662 31.392 15.1595 31.472C15.0528 31.552 14.9995 31.664 14.9995 31.808C14.9995 31.952 15.0555 32.0693 15.1675 32.16C15.2795 32.2507 15.4422 32.296 15.6555 32.296ZM18.8725 33V29.032H19.8645V29.552H20.0085C20.0725 29.4133 20.1925 29.2827 20.3685 29.16C20.5445 29.032 20.8112 28.968 21.1685 28.968C21.4778 28.968 21.7472 29.04 21.9765 29.184C22.2112 29.3227 22.3925 29.5173 22.5205 29.768C22.6485 30.0133 22.7125 30.3013 22.7125 30.632V33H21.7045V30.712C21.7045 30.4133 21.6298 30.1893 21.4805 30.04C21.3365 29.8907 21.1285 29.816 20.8565 29.816C20.5472 29.816 20.3072 29.92 20.1365 30.128C19.9658 30.3307 19.8805 30.616 19.8805 30.984V33H18.8725ZM27.4334 33.112C27.1188 33.112 26.8228 33.0347 26.5454 32.88C26.2734 32.72 26.0548 32.488 25.8894 32.184C25.7241 31.88 25.6414 31.512 25.6414 31.08V30.952C25.6414 30.52 25.7241 30.152 25.8894 29.848C26.0548 29.544 26.2734 29.3147 26.5454 29.16C26.8174 29 27.1134 28.92 27.4334 28.92C27.6734 28.92 27.8734 28.9493 28.0334 29.008C28.1988 29.0613 28.3321 29.1307 28.4334 29.216C28.5348 29.3013 28.6121 29.392 28.6654 29.488H28.8094V27.4H29.8174V33H28.8254V32.52H28.6814C28.5908 32.6693 28.4494 32.8053 28.2574 32.928C28.0708 33.0507 27.7961 33.112 27.4334 33.112ZM27.7374 32.232C28.0468 32.232 28.3054 32.1333 28.5134 31.936C28.7214 31.7333 28.8254 31.44 28.8254 31.056V30.976C28.8254 30.592 28.7214 30.3013 28.5134 30.104C28.3108 29.9013 28.0521 29.8 27.7374 29.8C27.4281 29.8 27.1694 29.9013 26.9614 30.104C26.7534 30.3013 26.6494 30.592 26.6494 30.976V31.056C26.6494 31.44 26.7534 31.7333 26.9614 31.936C27.1694 32.1333 27.4281 32.232 27.7374 32.232ZM30.935 33V29.032H31.927V29.48H32.071C32.1297 29.32 32.2257 29.2027 32.359 29.128C32.4977 29.0533 32.6577 29.016 32.839 29.016H33.319V29.912H32.823C32.567 29.912 32.3563 29.9813 32.191 30.12C32.0257 30.2533 31.943 30.4613 31.943 30.744V33H30.935ZM35.2451 33.112C34.9625 33.112 34.7091 33.064 34.4851 32.968C34.2611 32.8667 34.0825 32.7227 33.9491 32.536C33.8211 32.344 33.7571 32.112 33.7571 31.84C33.7571 31.568 33.8211 31.3413 33.9491 31.16C34.0825 30.9733 34.2638 30.8347 34.4931 30.744C34.7278 30.648 34.9945 30.6 35.2931 30.6H36.3811V30.376C36.3811 30.1893 36.3225 30.0373 36.2051 29.92C36.0878 29.7973 35.9011 29.736 35.6451 29.736C35.3945 29.736 35.2078 29.7947 35.0851 29.912C34.9625 30.024 34.8825 30.1707 34.8451 30.352L33.9171 30.04C33.9811 29.8373 34.0825 29.6533 34.2211 29.488C34.3651 29.3173 34.5545 29.1813 34.7891 29.08C35.0291 28.9733 35.3198 28.92 35.6611 28.92C36.1838 28.92 36.5971 29.0507 36.9011 29.312C37.2051 29.5733 37.3571 29.952 37.3571 30.448V31.928C37.3571 32.088 37.4318 32.168 37.5811 32.168H37.9011V33H37.2291C37.0318 33 36.8691 32.952 36.7411 32.856C36.6131 32.76 36.5491 32.632 36.5491 32.472V32.464H36.3971C36.3758 32.528 36.3278 32.6133 36.2531 32.72C36.1785 32.8213 36.0611 32.912 35.9011 32.992C35.7411 33.072 35.5225 33.112 35.2451 33.112ZM35.4211 32.296C35.7038 32.296 35.9331 32.2187 36.1091 32.064C36.2905 31.904 36.3811 31.6933 36.3811 31.432V31.352H35.3651C35.1785 31.352 35.0318 31.392 34.9251 31.472C34.8185 31.552 34.7651 31.664 34.7651 31.808C34.7651 31.952 34.8211 32.0693 34.9331 32.16C35.0451 32.2507 35.2078 32.296 35.4211 32.296ZM38.368 31.032V30.904C38.368 30.488 38.4507 30.1333 38.616 29.84C38.7813 29.5413 39 29.3147 39.272 29.16C39.5493 29 39.8507 28.92 40.176 28.92C40.5387 28.92 40.8133 28.984 41 29.112C41.1867 29.24 41.3227 29.3733 41.408 29.512H41.552V29.032H42.544V33.704C42.544 33.976 42.464 34.192 42.304 34.352C42.144 34.5173 41.9307 34.6 41.664 34.6H39.008V33.72H41.312C41.4613 33.72 41.536 33.64 41.536 33.48V32.448H41.392C41.3387 32.5333 41.264 32.6213 41.168 32.712C41.072 32.7973 40.944 32.8693 40.784 32.928C40.624 32.9867 40.4213 33.016 40.176 33.016C39.8507 33.016 39.5493 32.9387 39.272 32.784C39 32.624 38.7813 32.3973 38.616 32.104C38.4507 31.8053 38.368 31.448 38.368 31.032ZM40.464 32.136C40.7733 32.136 41.032 32.0373 41.24 31.84C41.448 31.6427 41.552 31.3653 41.552 31.008V30.928C41.552 30.5653 41.448 30.288 41.24 30.096C41.0373 29.8987 40.7787 29.8 40.464 29.8C40.1547 29.8 39.896 29.8987 39.688 30.096C39.48 30.288 39.376 30.5653 39.376 30.928V31.008C39.376 31.3653 39.48 31.6427 39.688 31.84C39.896 32.0373 40.1547 32.136 40.464 32.136ZM47.2128 33C46.9515 33 46.7381 32.92 46.5728 32.76C46.4128 32.5947 46.3328 32.376 46.3328 32.104V29.864H45.3408V29.032H46.3328V27.8H47.3408V29.032H48.4288V29.864H47.3408V31.928C47.3408 32.088 47.4155 32.168 47.5648 32.168H48.3328V33H47.2128ZM49.3413 33V27.4H50.3493V29.52H50.4933C50.5359 29.4347 50.6026 29.3493 50.6933 29.264C50.7839 29.1787 50.9039 29.1093 51.0533 29.056C51.2079 28.9973 51.4026 28.968 51.6373 28.968C51.9466 28.968 52.2159 29.04 52.4453 29.184C52.6799 29.3227 52.8613 29.5173 52.9893 29.768C53.1173 30.0133 53.1813 30.3013 53.1813 30.632V33H52.1733V30.712C52.1733 30.4133 52.0986 30.1893 51.9493 30.04C51.8053 29.8907 51.5973 29.816 51.3253 29.816C51.0159 29.816 50.7759 29.92 50.6053 30.128C50.4346 30.3307 50.3493 30.616 50.3493 30.984V33H49.3413ZM56.0789 33.112C55.6843 33.112 55.3349 33.0293 55.0309 32.864C54.7323 32.6933 54.4976 32.456 54.3269 32.152C54.1616 31.8427 54.0789 31.48 54.0789 31.064V30.968C54.0789 30.552 54.1616 30.192 54.3269 29.888C54.4923 29.5787 54.7243 29.3413 55.0229 29.176C55.3216 29.0053 55.6683 28.92 56.0629 28.92C56.4523 28.92 56.7909 29.008 57.0789 29.184C57.3669 29.3547 57.5909 29.5947 57.7509 29.904C57.9109 30.208 57.9909 30.5627 57.9909 30.968V31.312H55.1029C55.1136 31.584 55.2149 31.8053 55.4069 31.976C55.5989 32.1467 55.8336 32.232 56.1109 32.232C56.3936 32.232 56.6016 32.1707 56.7349 32.048C56.8683 31.9253 56.9696 31.7893 57.0389 31.64L57.8629 32.072C57.7883 32.2107 57.6789 32.3627 57.5349 32.528C57.3963 32.688 57.2096 32.8267 56.9749 32.944C56.7403 33.056 56.4416 33.112 56.0789 33.112ZM55.1109 30.56H56.9669C56.9456 30.3307 56.8523 30.1467 56.6869 30.008C56.5269 29.8693 56.3163 29.8 56.0549 29.8C55.7829 29.8 55.5669 29.8693 55.4069 30.008C55.2469 30.1467 55.1483 30.3307 55.1109 30.56ZM11.368 41.112C10.9733 41.112 10.624 41.0293 10.32 40.864C10.0213 40.6933 9.78667 40.456 9.616 40.152C9.45067 39.8427 9.368 39.48 9.368 39.064V38.968C9.368 38.552 9.45067 38.192 9.616 37.888C9.78133 37.5787 10.0133 37.3413 10.312 37.176C10.6107 37.0053 10.9573 36.92 11.352 36.92C11.7413 36.92 12.08 37.008 12.368 37.184C12.656 37.3547 12.88 37.5947 13.04 37.904C13.2 38.208 13.28 38.5627 13.28 38.968V39.312H10.392C10.4027 39.584 10.504 39.8053 10.696 39.976C10.888 40.1467 11.1227 40.232 11.4 40.232C11.6827 40.232 11.8907 40.1707 12.024 40.048C12.1573 39.9253 12.2587 39.7893 12.328 39.64L13.152 40.072C13.0773 40.2107 12.968 40.3627 12.824 40.528C12.6853 40.688 12.4987 40.8267 12.264 40.944C12.0293 41.056 11.7307 41.112 11.368 41.112ZM10.4 38.56H12.256C12.2347 38.3307 12.1413 38.1467 11.976 38.008C11.816 37.8693 11.6053 37.8 11.344 37.8C11.072 37.8 10.856 37.8693 10.696 38.008C10.536 38.1467 10.4373 38.3307 10.4 38.56ZM14.1772 41V35.4H15.1852V41H14.1772ZM18.1102 41.112C17.7155 41.112 17.3662 41.0293 17.0622 40.864C16.7635 40.6933 16.5289 40.456 16.3582 40.152C16.1929 39.8427 16.1102 39.48 16.1102 39.064V38.968C16.1102 38.552 16.1929 38.192 16.3582 37.888C16.5235 37.5787 16.7555 37.3413 17.0542 37.176C17.3529 37.0053 17.6995 36.92 18.0942 36.92C18.4835 36.92 18.8222 37.008 19.1102 37.184C19.3982 37.3547 19.6222 37.5947 19.7822 37.904C19.9422 38.208 20.0222 38.5627 20.0222 38.968V39.312H17.1342C17.1449 39.584 17.2462 39.8053 17.4382 39.976C17.6302 40.1467 17.8649 40.232 18.1422 40.232C18.4249 40.232 18.6329 40.1707 18.7662 40.048C18.8995 39.9253 19.0009 39.7893 19.0702 39.64L19.8942 40.072C19.8195 40.2107 19.7102 40.3627 19.5662 40.528C19.4275 40.688 19.2409 40.8267 19.0062 40.944C18.7715 41.056 18.4729 41.112 18.1102 41.112ZM17.1422 38.56H18.9982C18.9769 38.3307 18.8835 38.1467 18.7182 38.008C18.5582 37.8693 18.3475 37.8 18.0862 37.8C17.8142 37.8 17.5982 37.8693 17.4382 38.008C17.2782 38.1467 17.1795 38.3307 17.1422 38.56ZM20.9194 41V37.032H21.9114V37.464H22.0554C22.1247 37.3307 22.2394 37.216 22.3994 37.12C22.5594 37.0187 22.77 36.968 23.0314 36.968C23.314 36.968 23.5407 37.024 23.7114 37.136C23.882 37.2427 24.0127 37.384 24.1034 37.56H24.2474C24.338 37.3893 24.466 37.248 24.6314 37.136C24.7967 37.024 25.0314 36.968 25.3354 36.968C25.5807 36.968 25.802 37.0213 25.9994 37.128C26.202 37.2293 26.362 37.3867 26.4794 37.6C26.602 37.808 26.6634 38.072 26.6634 38.392V41H25.6554V38.464C25.6554 38.2453 25.5994 38.0827 25.4874 37.976C25.3754 37.864 25.218 37.808 25.0154 37.808C24.786 37.808 24.6074 37.8827 24.4794 38.032C24.3567 38.176 24.2954 38.384 24.2954 38.656V41H23.2874V38.464C23.2874 38.2453 23.2314 38.0827 23.1194 37.976C23.0074 37.864 22.85 37.808 22.6474 37.808C22.418 37.808 22.2394 37.8827 22.1114 38.032C21.9887 38.176 21.9274 38.384 21.9274 38.656V41H20.9194ZM29.5555 41.112C29.1608 41.112 28.8115 41.0293 28.5075 40.864C28.2088 40.6933 27.9742 40.456 27.8035 40.152C27.6382 39.8427 27.5555 39.48 27.5555 39.064V38.968C27.5555 38.552 27.6382 38.192 27.8035 37.888C27.9688 37.5787 28.2008 37.3413 28.4995 37.176C28.7982 37.0053 29.1448 36.92 29.5395 36.92C29.9288 36.92 30.2675 37.008 30.5555 37.184C30.8435 37.3547 31.0675 37.5947 31.2275 37.904C31.3875 38.208 31.4675 38.5627 31.4675 38.968V39.312H28.5795C28.5902 39.584 28.6915 39.8053 28.8835 39.976C29.0755 40.1467 29.3102 40.232 29.5875 40.232C29.8702 40.232 30.0782 40.1707 30.2115 40.048C30.3448 39.9253 30.4462 39.7893 30.5155 39.64L31.3395 40.072C31.2648 40.2107 31.1555 40.3627 31.0115 40.528C30.8728 40.688 30.6862 40.8267 30.4515 40.944C30.2168 41.056 29.9182 41.112 29.5555 41.112ZM28.5875 38.56H30.4435C30.4222 38.3307 30.3288 38.1467 30.1635 38.008C30.0035 37.8693 29.7928 37.8 29.5315 37.8C29.2595 37.8 29.0435 37.8693 28.8835 38.008C28.7235 38.1467 28.6248 38.3307 28.5875 38.56ZM32.3647 41V37.032H33.3567V37.552H33.5007C33.5647 37.4133 33.6847 37.2827 33.8607 37.16C34.0367 37.032 34.3034 36.968 34.6607 36.968C34.97 36.968 35.2394 37.04 35.4687 37.184C35.7034 37.3227 35.8847 37.5173 36.0127 37.768C36.1407 38.0133 36.2047 38.3013 36.2047 38.632V41H35.1967V38.712C35.1967 38.4133 35.122 38.1893 34.9727 38.04C34.8287 37.8907 34.6207 37.816 34.3487 37.816C34.0394 37.816 33.7994 37.92 33.6287 38.128C33.458 38.3307 33.3727 38.616 33.3727 38.984V41H32.3647ZM38.705 41C38.4437 41 38.2303 40.92 38.065 40.76C37.905 40.5947 37.825 40.376 37.825 40.104V37.864H36.833V37.032H37.825V35.8H38.833V37.032H39.921V37.864H38.833V39.928C38.833 40.088 38.9077 40.168 39.057 40.168H39.825V41H38.705ZM42.4814 41.112C41.9641 41.112 41.5401 41 41.2094 40.776C40.8788 40.552 40.6788 40.232 40.6094 39.816L41.5374 39.576C41.5748 39.7627 41.6361 39.9093 41.7214 40.016C41.8121 40.1227 41.9214 40.2 42.0494 40.248C42.1828 40.2907 42.3268 40.312 42.4814 40.312C42.7161 40.312 42.8894 40.272 43.0014 40.192C43.1134 40.1067 43.1694 40.0027 43.1694 39.88C43.1694 39.7573 43.1161 39.664 43.0094 39.6C42.9028 39.5307 42.7321 39.4747 42.4974 39.432L42.2734 39.392C41.9961 39.3387 41.7428 39.2667 41.5134 39.176C41.2841 39.08 41.1001 38.9493 40.9614 38.784C40.8228 38.6187 40.7534 38.4053 40.7534 38.144C40.7534 37.7493 40.8974 37.448 41.1854 37.24C41.4734 37.0267 41.8521 36.92 42.3214 36.92C42.7641 36.92 43.1321 37.0187 43.4254 37.216C43.7188 37.4133 43.9108 37.672 44.0014 37.992L43.0654 38.28C43.0228 38.0773 42.9348 37.9333 42.8014 37.848C42.6734 37.7627 42.5134 37.72 42.3214 37.72C42.1294 37.72 41.9828 37.7547 41.8814 37.824C41.7801 37.888 41.7294 37.9787 41.7294 38.096C41.7294 38.224 41.7828 38.32 41.8894 38.384C41.9961 38.4427 42.1401 38.488 42.3214 38.52L42.5454 38.56C42.8441 38.6133 43.1134 38.6853 43.3534 38.776C43.5988 38.8613 43.7908 38.9867 43.9294 39.152C44.0734 39.312 44.1454 39.5307 44.1454 39.808C44.1454 40.224 43.9934 40.5467 43.6894 40.776C43.3908 41 42.9881 41.112 42.4814 41.112ZM48.292 41.112C48.0093 41.112 47.756 41.064 47.532 40.968C47.308 40.8667 47.1293 40.7227 46.996 40.536C46.868 40.344 46.804 40.112 46.804 39.84C46.804 39.568 46.868 39.3413 46.996 39.16C47.1293 38.9733 47.3107 38.8347 47.54 38.744C47.7747 38.648 48.0413 38.6 48.34 38.6H49.428V38.376C49.428 38.1893 49.3693 38.0373 49.252 37.92C49.1347 37.7973 48.948 37.736 48.692 37.736C48.4413 37.736 48.2547 37.7947 48.132 37.912C48.0093 38.024 47.9293 38.1707 47.892 38.352L46.964 38.04C47.028 37.8373 47.1293 37.6533 47.268 37.488C47.412 37.3173 47.6013 37.1813 47.836 37.08C48.076 36.9733 48.3667 36.92 48.708 36.92C49.2307 36.92 49.644 37.0507 49.948 37.312C50.252 37.5733 50.404 37.952 50.404 38.448V39.928C50.404 40.088 50.4787 40.168 50.628 40.168H50.948V41H50.276C50.0787 41 49.916 40.952 49.788 40.856C49.66 40.76 49.596 40.632 49.596 40.472V40.464H49.444C49.4227 40.528 49.3747 40.6133 49.3 40.72C49.2253 40.8213 49.108 40.912 48.948 40.992C48.788 41.072 48.5693 41.112 48.292 41.112ZM48.468 40.296C48.7507 40.296 48.98 40.2187 49.156 40.064C49.3373 39.904 49.428 39.6933 49.428 39.432V39.352H48.412C48.2253 39.352 48.0787 39.392 47.972 39.472C47.8653 39.552 47.812 39.664 47.812 39.808C47.812 39.952 47.868 40.0693 47.98 40.16C48.092 40.2507 48.2547 40.296 48.468 40.296ZM51.685 41V37.032H52.677V37.48H52.821C52.8797 37.32 52.9757 37.2027 53.109 37.128C53.2477 37.0533 53.4077 37.016 53.589 37.016H54.069V37.912H53.573C53.317 37.912 53.1063 37.9813 52.941 38.12C52.7757 38.2533 52.693 38.4613 52.693 38.744V41H51.685ZM56.6043 41.112C56.2096 41.112 55.8549 41.032 55.5403 40.872C55.2256 40.712 54.9776 40.48 54.7963 40.176C54.6149 39.872 54.5243 39.5067 54.5243 39.08V38.952C54.5243 38.5253 54.6149 38.16 54.7963 37.856C54.9776 37.552 55.2256 37.32 55.5403 37.16C55.8549 37 56.2096 36.92 56.6043 36.92C56.9989 36.92 57.3536 37 57.6683 37.16C57.9829 37.32 58.2309 37.552 58.4123 37.856C58.5936 38.16 58.6843 38.5253 58.6843 38.952V39.08C58.6843 39.5067 58.5936 39.872 58.4123 40.176C58.2309 40.48 57.9829 40.712 57.6683 40.872C57.3536 41.032 56.9989 41.112 56.6043 41.112ZM56.6043 40.216C56.9136 40.216 57.1696 40.1173 57.3723 39.92C57.5749 39.7173 57.6763 39.4293 57.6763 39.056V38.976C57.6763 38.6027 57.5749 38.3173 57.3723 38.12C57.1749 37.9173 56.9189 37.816 56.6043 37.816C56.2949 37.816 56.0389 37.9173 55.8363 38.12C55.6336 38.3173 55.5323 38.6027 55.5323 38.976V39.056C55.5323 39.4293 55.6336 39.7173 55.8363 39.92C56.0389 40.1173 56.2949 40.216 56.6043 40.216ZM61.1267 41.064C60.8174 41.064 60.5454 40.9947 60.3107 40.856C60.0814 40.712 59.9027 40.5147 59.7747 40.264C59.6467 40.0133 59.5827 39.7253 59.5827 39.4V37.032H60.5907V39.32C60.5907 39.6187 60.6627 39.8427 60.8067 39.992C60.956 40.1413 61.1667 40.216 61.4387 40.216C61.748 40.216 61.988 40.1147 62.1587 39.912C62.3294 39.704 62.4147 39.416 62.4147 39.048V37.032H63.4227V41H62.4307V40.48H62.2867C62.2227 40.6133 62.1027 40.744 61.9267 40.872C61.7507 41 61.484 41.064 61.1267 41.064ZM64.5444 41V37.032H65.5364V37.552H65.6804C65.7444 37.4133 65.8644 37.2827 66.0404 37.16C66.2164 37.032 66.483 36.968 66.8404 36.968C67.1497 36.968 67.419 37.04 67.6484 37.184C67.883 37.3227 68.0644 37.5173 68.1924 37.768C68.3204 38.0133 68.3844 38.3013 68.3844 38.632V41H67.3764V38.712C67.3764 38.4133 67.3017 38.1893 67.1524 38.04C67.0084 37.8907 66.8004 37.816 66.5284 37.816C66.219 37.816 65.979 37.92 65.8084 38.128C65.6377 38.3307 65.5524 38.616 65.5524 38.984V41H64.5444ZM71.0741 41.112C70.7594 41.112 70.4634 41.0347 70.1861 40.88C69.9141 40.72 69.6954 40.488 69.5301 40.184C69.3647 39.88 69.2821 39.512 69.2821 39.08V38.952C69.2821 38.52 69.3647 38.152 69.5301 37.848C69.6954 37.544 69.9141 37.3147 70.1861 37.16C70.4581 37 70.7541 36.92 71.0741 36.92C71.3141 36.92 71.5141 36.9493 71.6741 37.008C71.8394 37.0613 71.9727 37.1307 72.0741 37.216C72.1754 37.3013 72.2527 37.392 72.3061 37.488H72.4501V35.4H73.4581V41H72.4661V40.52H72.3221C72.2314 40.6693 72.0901 40.8053 71.8981 40.928C71.7114 41.0507 71.4367 41.112 71.0741 41.112ZM71.3781 40.232C71.6874 40.232 71.9461 40.1333 72.1541 39.936C72.3621 39.7333 72.4661 39.44 72.4661 39.056V38.976C72.4661 38.592 72.3621 38.3013 72.1541 38.104C71.9514 37.9013 71.6927 37.8 71.3781 37.8C71.0687 37.8 70.8101 37.9013 70.6021 38.104C70.3941 38.3013 70.2901 38.592 70.2901 38.976V39.056C70.2901 39.44 70.3941 39.7333 70.6021 39.936C70.8101 40.1333 71.0687 40.232 71.3781 40.232ZM11.08 49C10.8187 49 10.6053 48.92 10.44 48.76C10.28 48.5947 10.2 48.376 10.2 48.104V45.864H9.208V45.032H10.2V43.8H11.208V45.032H12.296V45.864H11.208V47.928C11.208 48.088 11.2827 48.168 11.432 48.168H12.2V49H11.08ZM13.2084 49V43.4H14.2164V45.52H14.3604C14.4031 45.4347 14.4698 45.3493 14.5604 45.264C14.6511 45.1787 14.7711 45.1093 14.9204 45.056C15.0751 44.9973 15.2698 44.968 15.5044 44.968C15.8138 44.968 16.0831 45.04 16.3124 45.184C16.5471 45.3227 16.7284 45.5173 16.8564 45.768C16.9844 46.0133 17.0484 46.3013 17.0484 46.632V49H16.0404V46.712C16.0404 46.4133 15.9658 46.1893 15.8164 46.04C15.6724 45.8907 15.4644 45.816 15.1924 45.816C14.8831 45.816 14.6431 45.92 14.4724 46.128C14.3018 46.3307 14.2164 46.616 14.2164 46.984V49H13.2084ZM19.9461 49.112C19.5515 49.112 19.2021 49.0293 18.8981 48.864C18.5995 48.6933 18.3648 48.456 18.1941 48.152C18.0288 47.8427 17.9461 47.48 17.9461 47.064V46.968C17.9461 46.552 18.0288 46.192 18.1941 45.888C18.3595 45.5787 18.5915 45.3413 18.8901 45.176C19.1888 45.0053 19.5355 44.92 19.9301 44.92C20.3195 44.92 20.6581 45.008 20.9461 45.184C21.2341 45.3547 21.4581 45.5947 21.6181 45.904C21.7781 46.208 21.8581 46.5627 21.8581 46.968V47.312H18.9701C18.9808 47.584 19.0821 47.8053 19.2741 47.976C19.4661 48.1467 19.7008 48.232 19.9781 48.232C20.2608 48.232 20.4688 48.1707 20.6021 48.048C20.7355 47.9253 20.8368 47.7893 20.9061 47.64L21.7301 48.072C21.6555 48.2107 21.5461 48.3627 21.4021 48.528C21.2635 48.688 21.0768 48.8267 20.8421 48.944C20.6075 49.056 20.3088 49.112 19.9461 49.112ZM18.9781 46.56H20.8341C20.8128 46.3307 20.7195 46.1467 20.5541 46.008C20.3941 45.8693 20.1835 45.8 19.9221 45.8C19.6501 45.8 19.4341 45.8693 19.2741 46.008C19.1141 46.1467 19.0155 46.3307 18.9781 46.56ZM24.7866 50.6V45.032H25.7786V45.512H25.9226C26.0132 45.3573 26.1546 45.2213 26.3466 45.104C26.5386 44.9813 26.8132 44.92 27.1706 44.92C27.4906 44.92 27.7866 45 28.0586 45.16C28.3306 45.3147 28.5492 45.544 28.7146 45.848C28.8799 46.152 28.9626 46.52 28.9626 46.952V47.08C28.9626 47.512 28.8799 47.88 28.7146 48.184C28.5492 48.488 28.3306 48.72 28.0586 48.88C27.7866 49.0347 27.4906 49.112 27.1706 49.112C26.9306 49.112 26.7279 49.0827 26.5626 49.024C26.4026 48.9707 26.2719 48.9013 26.1706 48.816C26.0746 48.7253 25.9972 48.6347 25.9386 48.544H25.7946V50.6H24.7866ZM26.8666 48.232C27.1812 48.232 27.4399 48.1333 27.6426 47.936C27.8506 47.7333 27.9546 47.44 27.9546 47.056V46.976C27.9546 46.592 27.8506 46.3013 27.6426 46.104C27.4346 45.9013 27.1759 45.8 26.8666 45.8C26.5572 45.8 26.2986 45.9013 26.0906 46.104C25.8826 46.3013 25.7786 46.592 25.7786 46.976V47.056C25.7786 47.44 25.8826 47.7333 26.0906 47.936C26.2986 48.1333 26.5572 48.232 26.8666 48.232ZM29.8881 49V45.032H30.8961V49H29.8881ZM30.3921 44.568C30.2108 44.568 30.0561 44.5093 29.9281 44.392C29.8055 44.2747 29.7441 44.12 29.7441 43.928C29.7441 43.736 29.8055 43.5813 29.9281 43.464C30.0561 43.3467 30.2108 43.288 30.3921 43.288C30.5788 43.288 30.7335 43.3467 30.8561 43.464C30.9788 43.5813 31.0401 43.736 31.0401 43.928C31.0401 44.12 30.9788 44.2747 30.8561 44.392C30.7335 44.5093 30.5788 44.568 30.3921 44.568ZM32.0131 49V45.032H33.0051V45.552H33.1491C33.2131 45.4133 33.3331 45.2827 33.5091 45.16C33.6851 45.032 33.9518 44.968 34.3091 44.968C34.6185 44.968 34.8878 45.04 35.1171 45.184C35.3518 45.3227 35.5331 45.5173 35.6611 45.768C35.7891 46.0133 35.8531 46.3013 35.8531 46.632V49H34.8451V46.712C34.8451 46.4133 34.7705 46.1893 34.6211 46.04C34.4771 45.8907 34.2691 45.816 33.9971 45.816C33.6878 45.816 33.4478 45.92 33.2771 46.128C33.1065 46.3307 33.0211 46.616 33.0211 46.984V49H32.0131ZM36.9428 49V43.4H37.9508V46.496H38.0948L39.4068 45.032H40.7188L38.8868 46.952L40.7828 49H39.4868L38.0948 47.424H37.9508V49H36.9428ZM43.4897 49V45.032H44.4817V45.48H44.6257C44.6844 45.32 44.7804 45.2027 44.9137 45.128C45.0524 45.0533 45.2124 45.016 45.3937 45.016H45.8737V45.912H45.3777C45.1217 45.912 44.911 45.9813 44.7457 46.12C44.5804 46.2533 44.4977 46.4613 44.4977 46.744V49H43.4897ZM48.3289 49.112C47.9343 49.112 47.5849 49.0293 47.2809 48.864C46.9823 48.6933 46.7476 48.456 46.5769 48.152C46.4116 47.8427 46.3289 47.48 46.3289 47.064V46.968C46.3289 46.552 46.4116 46.192 46.5769 45.888C46.7423 45.5787 46.9743 45.3413 47.2729 45.176C47.5716 45.0053 47.9183 44.92 48.3129 44.92C48.7023 44.92 49.0409 45.008 49.3289 45.184C49.6169 45.3547 49.8409 45.5947 50.0009 45.904C50.1609 46.208 50.2409 46.5627 50.2409 46.968V47.312H47.3529C47.3636 47.584 47.4649 47.8053 47.6569 47.976C47.8489 48.1467 48.0836 48.232 48.3609 48.232C48.6436 48.232 48.8516 48.1707 48.9849 48.048C49.1183 47.9253 49.2196 47.7893 49.2889 47.64L50.1129 48.072C50.0383 48.2107 49.9289 48.3627 49.7849 48.528C49.6463 48.688 49.4596 48.8267 49.2249 48.944C48.9903 49.056 48.6916 49.112 48.3289 49.112ZM47.3609 46.56H49.2169C49.1956 46.3307 49.1023 46.1467 48.9369 46.008C48.7769 45.8693 48.5663 45.8 48.3049 45.8C48.0329 45.8 47.8169 45.8693 47.6569 46.008C47.4969 46.1467 47.3983 46.3307 47.3609 46.56ZM53.0021 49.112C52.6181 49.112 52.2688 49.032 51.9541 48.872C51.6448 48.712 51.3995 48.48 51.2181 48.176C51.0368 47.872 50.9461 47.504 50.9461 47.072V46.96C50.9461 46.528 51.0368 46.16 51.2181 45.856C51.3995 45.552 51.6448 45.32 51.9541 45.16C52.2688 45 52.6181 44.92 53.0021 44.92C53.3808 44.92 53.7061 44.9867 53.9781 45.12C54.2501 45.2533 54.4688 45.4373 54.6341 45.672C54.8048 45.9013 54.9168 46.1627 54.9701 46.456L53.9941 46.664C53.9728 46.504 53.9248 46.36 53.8501 46.232C53.7755 46.104 53.6688 46.0027 53.5301 45.928C53.3968 45.8533 53.2288 45.816 53.0261 45.816C52.8235 45.816 52.6395 45.8613 52.4741 45.952C52.3141 46.0373 52.1861 46.168 52.0901 46.344C51.9995 46.5147 51.9541 46.7253 51.9541 46.976V47.056C51.9541 47.3067 51.9995 47.52 52.0901 47.696C52.1861 47.8667 52.3141 47.9973 52.4741 48.088C52.6395 48.1733 52.8235 48.216 53.0261 48.216C53.3301 48.216 53.5595 48.1387 53.7141 47.984C53.8741 47.824 53.9755 47.616 54.0181 47.36L54.9941 47.592C54.9248 47.8747 54.8048 48.1333 54.6341 48.368C54.4688 48.5973 54.2501 48.7787 53.9781 48.912C53.7061 49.0453 53.3808 49.112 53.0021 49.112ZM57.2128 49C56.9515 49 56.7381 48.92 56.5728 48.76C56.4128 48.5947 56.3328 48.376 56.3328 48.104V45.864H55.3408V45.032H56.3328V43.8H57.3408V45.032H58.4288V45.864H57.3408V47.928C57.3408 48.088 57.4155 48.168 57.5648 48.168H58.3328V49H57.2128ZM60.5733 49.112C60.2906 49.112 60.0373 49.064 59.8133 48.968C59.5893 48.8667 59.4106 48.7227 59.2773 48.536C59.1493 48.344 59.0853 48.112 59.0853 47.84C59.0853 47.568 59.1493 47.3413 59.2773 47.16C59.4106 46.9733 59.5919 46.8347 59.8213 46.744C60.0559 46.648 60.3226 46.6 60.6213 46.6H61.7093V46.376C61.7093 46.1893 61.6506 46.0373 61.5333 45.92C61.4159 45.7973 61.2293 45.736 60.9733 45.736C60.7226 45.736 60.5359 45.7947 60.4133 45.912C60.2906 46.024 60.2106 46.1707 60.1733 46.352L59.2453 46.04C59.3093 45.8373 59.4106 45.6533 59.5493 45.488C59.6933 45.3173 59.8826 45.1813 60.1173 45.08C60.3573 44.9733 60.6479 44.92 60.9893 44.92C61.5119 44.92 61.9253 45.0507 62.2293 45.312C62.5333 45.5733 62.6853 45.952 62.6853 46.448V47.928C62.6853 48.088 62.7599 48.168 62.9093 48.168H63.2293V49H62.5573C62.3599 49 62.1973 48.952 62.0693 48.856C61.9413 48.76 61.8773 48.632 61.8773 48.472V48.464H61.7253C61.7039 48.528 61.6559 48.6133 61.5813 48.72C61.5066 48.8213 61.3893 48.912 61.2293 48.992C61.0693 49.072 60.8506 49.112 60.5733 49.112ZM60.7493 48.296C61.0319 48.296 61.2613 48.2187 61.4373 48.064C61.6186 47.904 61.7093 47.6933 61.7093 47.432V47.352H60.6933C60.5066 47.352 60.3599 47.392 60.2533 47.472C60.1466 47.552 60.0933 47.664 60.0933 47.808C60.0933 47.952 60.1493 48.0693 60.2613 48.16C60.3733 48.2507 60.5359 48.296 60.7493 48.296ZM63.9663 49V45.032H64.9583V45.552H65.1023C65.1663 45.4133 65.2863 45.2827 65.4622 45.16C65.6383 45.032 65.9049 44.968 66.2623 44.968C66.5716 44.968 66.8409 45.04 67.0703 45.184C67.3049 45.3227 67.4863 45.5173 67.6143 45.768C67.7423 46.0133 67.8063 46.3013 67.8063 46.632V49H66.7983V46.712C66.7983 46.4133 66.7236 46.1893 66.5743 46.04C66.4303 45.8907 66.2223 45.816 65.9503 45.816C65.6409 45.816 65.4009 45.92 65.2303 46.128C65.0596 46.3307 64.9743 46.616 64.9743 46.984V49H63.9663ZM68.7039 47.032V46.904C68.7039 46.488 68.7866 46.1333 68.9519 45.84C69.1173 45.5413 69.3359 45.3147 69.6079 45.16C69.8853 45 70.1866 44.92 70.5119 44.92C70.8746 44.92 71.1493 44.984 71.3359 45.112C71.5226 45.24 71.6586 45.3733 71.7439 45.512H71.8879V45.032H72.8799V49.704C72.8799 49.976 72.7999 50.192 72.6399 50.352C72.4799 50.5173 72.2666 50.6 71.9999 50.6H69.3439V49.72H71.6479C71.7973 49.72 71.8719 49.64 71.8719 49.48V48.448H71.7279C71.6746 48.5333 71.5999 48.6213 71.5039 48.712C71.4079 48.7973 71.2799 48.8693 71.1199 48.928C70.9599 48.9867 70.7573 49.016 70.5119 49.016C70.1866 49.016 69.8853 48.9387 69.6079 48.784C69.3359 48.624 69.1173 48.3973 68.9519 48.104C68.7866 47.8053 68.7039 47.448 68.7039 47.032ZM70.7999 48.136C71.1093 48.136 71.3679 48.0373 71.5759 47.84C71.7839 47.6427 71.8879 47.3653 71.8879 47.008V46.928C71.8879 46.5653 71.7839 46.288 71.5759 46.096C71.3733 45.8987 71.1146 45.8 70.7999 45.8C70.4906 45.8 70.2319 45.8987 70.0239 46.096C69.8159 46.288 69.7119 46.5653 69.7119 46.928V47.008C69.7119 47.3653 69.8159 47.6427 70.0239 47.84C70.2319 48.0373 70.4906 48.136 70.7999 48.136ZM73.9975 49V43.4H75.0055V49H73.9975ZM77.9305 49.112C77.5358 49.112 77.1865 49.0293 76.8825 48.864C76.5838 48.6933 76.3492 48.456 76.1785 48.152C76.0132 47.8427 75.9305 47.48 75.9305 47.064V46.968C75.9305 46.552 76.0132 46.192 76.1785 45.888C76.3438 45.5787 76.5758 45.3413 76.8745 45.176C77.1732 45.0053 77.5198 44.92 77.9145 44.92C78.3038 44.92 78.6425 45.008 78.9305 45.184C79.2185 45.3547 79.4425 45.5947 79.6025 45.904C79.7625 46.208 79.8425 46.5627 79.8425 46.968V47.312H76.9545C76.9652 47.584 77.0665 47.8053 77.2585 47.976C77.4505 48.1467 77.6852 48.232 77.9625 48.232C78.2452 48.232 78.4532 48.1707 78.5865 48.048C78.7198 47.9253 78.8212 47.7893 78.8905 47.64L79.7145 48.072C79.6398 48.2107 79.5305 48.3627 79.3865 48.528C79.2478 48.688 79.0612 48.8267 78.8265 48.944C78.5918 49.056 78.2932 49.112 77.9305 49.112ZM76.9625 46.56H78.8185C78.7972 46.3307 78.7038 46.1467 78.5385 46.008C78.3785 45.8693 78.1678 45.8 77.9065 45.8C77.6345 45.8 77.4185 45.8693 77.2585 46.008C77.0985 46.1467 76.9998 46.3307 76.9625 46.56Z" fill="#D875C7"/>
</svg>
