<svg width="238" height="124" viewBox="0 0 238 124" fill="none" xmlns="http://www.w3.org/2000/svg">
<rect width="186" height="114.29" rx="20" fill="#FAFFD1"/>
<circle cx="203" cy="118" r="5" fill="#FAFFD1"/>
<circle cx="233" cy="119" r="5" fill="#FAFFD1"/>
<path d="M10.858 32V22.9H14.602C15.174 22.9 15.6767 23.017 16.11 23.251C16.552 23.4763 16.8943 23.797 17.137 24.213C17.3883 24.629 17.514 25.123 17.514 25.695V25.877C17.514 26.4403 17.384 26.9343 17.124 27.359C16.8727 27.775 16.526 28.1 16.084 28.334C15.6507 28.5593 15.1567 28.672 14.602 28.672H12.574V32H10.858ZM12.574 27.112H14.433C14.8403 27.112 15.1697 26.9993 15.421 26.774C15.6723 26.5487 15.798 26.241 15.798 25.851V25.721C15.798 25.331 15.6723 25.0233 15.421 24.798C15.1697 24.5727 14.8403 24.46 14.433 24.46H12.574V27.112ZM21.3068 32.182C20.4661 32.182 19.7771 32 19.2398 31.636C18.7024 31.272 18.3774 30.752 18.2648 30.076L19.7728 29.686C19.8334 29.9893 19.9331 30.2277 20.0718 30.401C20.2191 30.5743 20.3968 30.7 20.6048 30.778C20.8214 30.8473 21.0554 30.882 21.3068 30.882C21.6881 30.882 21.9698 30.817 22.1518 30.687C22.3338 30.5483 22.4248 30.3793 22.4248 30.18C22.4248 29.9807 22.3381 29.829 22.1648 29.725C21.9914 29.6123 21.7141 29.5213 21.3328 29.452L20.9688 29.387C20.5181 29.3003 20.1064 29.1833 19.7338 29.036C19.3611 28.88 19.0621 28.6677 18.8368 28.399C18.6114 28.1303 18.4988 27.7837 18.4988 27.359C18.4988 26.7177 18.7328 26.228 19.2008 25.89C19.6688 25.5433 20.2841 25.37 21.0468 25.37C21.7661 25.37 22.3641 25.5303 22.8408 25.851C23.3174 26.1717 23.6294 26.592 23.7768 27.112L22.2558 27.58C22.1864 27.2507 22.0434 27.0167 21.8268 26.878C21.6188 26.7393 21.3588 26.67 21.0468 26.67C20.7348 26.67 20.4964 26.7263 20.3318 26.839C20.1671 26.943 20.0848 27.0903 20.0848 27.281C20.0848 27.489 20.1714 27.645 20.3448 27.749C20.5181 27.8443 20.7521 27.918 21.0468 27.97L21.4108 28.035C21.8961 28.1217 22.3338 28.2387 22.7238 28.386C23.1224 28.5247 23.4344 28.7283 23.6598 28.997C23.8938 29.257 24.0108 29.6123 24.0108 30.063C24.0108 30.739 23.7638 31.2633 23.2698 31.636C22.7844 32 22.1301 32.182 21.3068 32.182ZM28.1241 32.182C27.2835 32.182 26.5945 32 26.0571 31.636C25.5198 31.272 25.1948 30.752 25.0821 30.076L26.5901 29.686C26.6508 29.9893 26.7505 30.2277 26.8891 30.401C27.0365 30.5743 27.2141 30.7 27.4221 30.778C27.6388 30.8473 27.8728 30.882 28.1241 30.882C28.5055 30.882 28.7871 30.817 28.9691 30.687C29.1511 30.5483 29.2421 30.3793 29.2421 30.18C29.2421 29.9807 29.1555 29.829 28.9821 29.725C28.8088 29.6123 28.5315 29.5213 28.1501 29.452L27.7861 29.387C27.3355 29.3003 26.9238 29.1833 26.5511 29.036C26.1785 28.88 25.8795 28.6677 25.6541 28.399C25.4288 28.1303 25.3161 27.7837 25.3161 27.359C25.3161 26.7177 25.5501 26.228 26.0181 25.89C26.4861 25.5433 27.1015 25.37 27.8641 25.37C28.5835 25.37 29.1815 25.5303 29.6581 25.851C30.1348 26.1717 30.4468 26.592 30.5941 27.112L29.0731 27.58C29.0038 27.2507 28.8608 27.0167 28.6441 26.878C28.4361 26.7393 28.1761 26.67 27.8641 26.67C27.5521 26.67 27.3138 26.7263 27.1491 26.839C26.9845 26.943 26.9021 27.0903 26.9021 27.281C26.9021 27.489 26.9888 27.645 27.1621 27.749C27.3355 27.8443 27.5695 27.918 27.8641 27.97L28.2281 28.035C28.7135 28.1217 29.1511 28.2387 29.5411 28.386C29.9398 28.5247 30.2518 28.7283 30.4771 28.997C30.7111 29.257 30.8281 29.6123 30.8281 30.063C30.8281 30.739 30.5811 31.2633 30.0871 31.636C29.6018 32 28.9475 32.182 28.1241 32.182ZM34.9415 32.182C34.1008 32.182 33.4118 32 32.8745 31.636C32.3372 31.272 32.0122 30.752 31.8995 30.076L33.4075 29.686C33.4682 29.9893 33.5678 30.2277 33.7065 30.401C33.8538 30.5743 34.0315 30.7 34.2395 30.778C34.4562 30.8473 34.6902 30.882 34.9415 30.882C35.3228 30.882 35.6045 30.817 35.7865 30.687C35.9685 30.5483 36.0595 30.3793 36.0595 30.18C36.0595 29.9807 35.9728 29.829 35.7995 29.725C35.6262 29.6123 35.3488 29.5213 34.9675 29.452L34.6035 29.387C34.1528 29.3003 33.7412 29.1833 33.3685 29.036C32.9958 28.88 32.6968 28.6677 32.4715 28.399C32.2462 28.1303 32.1335 27.7837 32.1335 27.359C32.1335 26.7177 32.3675 26.228 32.8355 25.89C33.3035 25.5433 33.9188 25.37 34.6815 25.37C35.4008 25.37 35.9988 25.5303 36.4755 25.851C36.9522 26.1717 37.2642 26.592 37.4115 27.112L35.8905 27.58C35.8212 27.2507 35.6782 27.0167 35.4615 26.878C35.2535 26.7393 34.9935 26.67 34.6815 26.67C34.3695 26.67 34.1312 26.7263 33.9665 26.839C33.8018 26.943 33.7195 27.0903 33.7195 27.281C33.7195 27.489 33.8062 27.645 33.9795 27.749C34.1528 27.8443 34.3868 27.918 34.6815 27.97L35.0455 28.035C35.5308 28.1217 35.9685 28.2387 36.3585 28.386C36.7572 28.5247 37.0692 28.7283 37.2945 28.997C37.5285 29.257 37.6455 29.6123 37.6455 30.063C37.6455 30.739 37.3985 31.2633 36.9045 31.636C36.4192 32 35.7648 32.182 34.9415 32.182ZM40.1079 32.182C39.7612 32.182 39.4666 32.0693 39.2239 31.844C38.9899 31.61 38.8729 31.311 38.8729 30.947C38.8729 30.583 38.9899 30.2883 39.2239 30.063C39.4666 29.829 39.7612 29.712 40.1079 29.712C40.4632 29.712 40.7579 29.829 40.9919 30.063C41.2259 30.2883 41.3429 30.583 41.3429 30.947C41.3429 31.311 41.2259 31.61 40.9919 31.844C40.7579 32.0693 40.4632 32.182 40.1079 32.182ZM43.98 32.182C43.6333 32.182 43.3386 32.0693 43.096 31.844C42.862 31.61 42.745 31.311 42.745 30.947C42.745 30.583 42.862 30.2883 43.096 30.063C43.3386 29.829 43.6333 29.712 43.98 29.712C44.3353 29.712 44.63 29.829 44.864 30.063C45.098 30.2883 45.215 30.583 45.215 30.947C45.215 31.311 45.098 31.61 44.864 31.844C44.63 32.0693 44.3353 32.182 43.98 32.182ZM10.598 52V50.492H11.794V44.408H10.598V42.9H14.342C15.564 42.9 16.4913 43.212 17.124 43.836C17.7653 44.4513 18.086 45.37 18.086 46.592V48.308C18.086 49.53 17.7653 50.453 17.124 51.077C16.4913 51.6923 15.564 52 14.342 52H10.598ZM13.51 50.44H14.368C15.0613 50.44 15.5683 50.258 15.889 49.894C16.2097 49.53 16.37 49.0187 16.37 48.36V46.54C16.37 45.8727 16.2097 45.3613 15.889 45.006C15.5683 44.642 15.0613 44.46 14.368 44.46H13.51V50.44ZM19.5682 52V45.552H21.2062V52H19.5682ZM20.3872 44.798C20.0925 44.798 19.8412 44.7027 19.6332 44.512C19.4339 44.3213 19.3342 44.07 19.3342 43.758C19.3342 43.446 19.4339 43.1947 19.6332 43.004C19.8412 42.8133 20.0925 42.718 20.3872 42.718C20.6905 42.718 20.9419 42.8133 21.1412 43.004C21.3405 43.1947 21.4402 43.446 21.4402 43.758C21.4402 44.07 21.3405 44.3213 21.1412 44.512C20.9419 44.7027 20.6905 44.798 20.3872 44.798ZM25.6213 52.182C25.11 52.182 24.629 52.0563 24.1783 51.805C23.7363 51.545 23.381 51.168 23.1123 50.674C22.8437 50.18 22.7093 49.582 22.7093 48.88V48.672C22.7093 47.97 22.8437 47.372 23.1123 46.878C23.381 46.384 23.7363 46.0113 24.1783 45.76C24.6203 45.5 25.1013 45.37 25.6213 45.37C26.0113 45.37 26.3363 45.4177 26.5963 45.513C26.865 45.5997 27.0817 45.7123 27.2463 45.851C27.411 45.9897 27.5367 46.137 27.6233 46.293H27.8573V42.9H29.4953V52H27.8833V51.22H27.6493C27.502 51.4627 27.2723 51.6837 26.9603 51.883C26.657 52.0823 26.2107 52.182 25.6213 52.182ZM26.1153 50.752C26.618 50.752 27.0383 50.5917 27.3763 50.271C27.7143 49.9417 27.8833 49.465 27.8833 48.841V48.711C27.8833 48.087 27.7143 47.6147 27.3763 47.294C27.047 46.9647 26.6267 46.8 26.1153 46.8C25.6127 46.8 25.1923 46.9647 24.8543 47.294C24.5163 47.6147 24.3473 48.087 24.3473 48.711V48.841C24.3473 49.465 24.5163 49.9417 24.8543 50.271C25.1923 50.5917 25.6127 50.752 26.1153 50.752ZM35.3141 54.6V53.17H38.8241C39.0668 53.17 39.1881 53.04 39.1881 52.78V51.155H38.9541C38.8848 51.3023 38.7765 51.4497 38.6291 51.597C38.4818 51.7443 38.2825 51.8657 38.0311 51.961C37.7798 52.0563 37.4591 52.104 37.0691 52.104C36.5665 52.104 36.1245 51.9913 35.7431 51.766C35.3705 51.532 35.0801 51.2113 34.8721 50.804C34.6641 50.3967 34.5601 49.9287 34.5601 49.4V45.552H36.1981V49.27C36.1981 49.7553 36.3151 50.1193 36.5491 50.362C36.7918 50.6047 37.1341 50.726 37.5761 50.726C38.0788 50.726 38.4688 50.5613 38.7461 50.232C39.0235 49.894 39.1621 49.426 39.1621 48.828V45.552H40.8001V53.144C40.8001 53.586 40.6701 53.937 40.4101 54.197C40.1501 54.4657 39.8035 54.6 39.3701 54.6H35.3141ZM45.6909 52.182C45.0496 52.182 44.4732 52.052 43.9619 51.792C43.4506 51.532 43.0476 51.155 42.7529 50.661C42.4582 50.167 42.3109 49.5733 42.3109 48.88V48.672C42.3109 47.9787 42.4582 47.385 42.7529 46.891C43.0476 46.397 43.4506 46.02 43.9619 45.76C44.4732 45.5 45.0496 45.37 45.6909 45.37C46.3322 45.37 46.9086 45.5 47.4199 45.76C47.9312 46.02 48.3342 46.397 48.6289 46.891C48.9236 47.385 49.0709 47.9787 49.0709 48.672V48.88C49.0709 49.5733 48.9236 50.167 48.6289 50.661C48.3342 51.155 47.9312 51.532 47.4199 51.792C46.9086 52.052 46.3322 52.182 45.6909 52.182ZM45.6909 50.726C46.1936 50.726 46.6096 50.5657 46.9389 50.245C47.2682 49.9157 47.4329 49.4477 47.4329 48.841V48.711C47.4329 48.1043 47.2682 47.6407 46.9389 47.32C46.6182 46.9907 46.2022 46.826 45.6909 46.826C45.1882 46.826 44.7722 46.9907 44.4429 47.32C44.1136 47.6407 43.9489 48.1043 43.9489 48.711V48.841C43.9489 49.4477 44.1136 49.9157 44.4429 50.245C44.7722 50.5657 45.1882 50.726 45.6909 50.726ZM53.0399 52.104C52.5372 52.104 52.0952 51.9913 51.7139 51.766C51.3412 51.532 51.0509 51.2113 50.8429 50.804C50.6349 50.3967 50.5309 49.9287 50.5309 49.4V45.552H52.1689V49.27C52.1689 49.7553 52.2859 50.1193 52.5199 50.362C52.7625 50.6047 53.1049 50.726 53.5469 50.726C54.0495 50.726 54.4395 50.5613 54.7169 50.232C54.9942 49.894 55.1329 49.426 55.1329 48.828V45.552H56.7709V52H55.1589V51.155H54.9249C54.8209 51.3717 54.6259 51.584 54.3399 51.792C54.0539 52 53.6205 52.104 53.0399 52.104ZM61.8944 52V42.9H63.5324V47.931H63.7664L65.8984 45.552H68.0304L65.0534 48.672L68.1344 52H66.0284L63.7664 49.439H63.5324V52H61.8944ZM69.2323 52V45.552H70.8443V46.397H71.0783C71.1823 46.1717 71.3773 45.9593 71.6633 45.76C71.9493 45.552 72.3826 45.448 72.9633 45.448C73.4659 45.448 73.9036 45.565 74.2763 45.799C74.6576 46.0243 74.9523 46.3407 75.1603 46.748C75.3683 47.1467 75.4723 47.6147 75.4723 48.152V52H73.8343V48.282C73.8343 47.7967 73.7129 47.4327 73.4703 47.19C73.2363 46.9473 72.8983 46.826 72.4563 46.826C71.9536 46.826 71.5636 46.995 71.2863 47.333C71.0089 47.6623 70.8703 48.126 70.8703 48.724V52H69.2323ZM80.311 52.182C79.6697 52.182 79.0933 52.052 78.582 51.792C78.0707 51.532 77.6677 51.155 77.373 50.661C77.0783 50.167 76.931 49.5733 76.931 48.88V48.672C76.931 47.9787 77.0783 47.385 77.373 46.891C77.6677 46.397 78.0707 46.02 78.582 45.76C79.0933 45.5 79.6697 45.37 80.311 45.37C80.9523 45.37 81.5287 45.5 82.04 45.76C82.5513 46.02 82.9543 46.397 83.249 46.891C83.5437 47.385 83.691 47.9787 83.691 48.672V48.88C83.691 49.5733 83.5437 50.167 83.249 50.661C82.9543 51.155 82.5513 51.532 82.04 51.792C81.5287 52.052 80.9523 52.182 80.311 52.182ZM80.311 50.726C80.8137 50.726 81.2297 50.5657 81.559 50.245C81.8883 49.9157 82.053 49.4477 82.053 48.841V48.711C82.053 48.1043 81.8883 47.6407 81.559 47.32C81.2383 46.9907 80.8223 46.826 80.311 46.826C79.8083 46.826 79.3923 46.9907 79.063 47.32C78.7337 47.6407 78.569 48.1043 78.569 48.711V48.841C78.569 49.4477 78.7337 49.9157 79.063 50.245C79.3923 50.5657 79.8083 50.726 80.311 50.726ZM85.6976 52L84.7876 45.552H86.4126L86.9846 50.895H87.2186L88.0506 45.552H90.6766L91.5086 50.895H91.7426L92.3146 45.552H93.9396L93.0296 52H90.3126L89.4806 46.657H89.2466L88.4146 52H85.6976ZM99.3747 54.6V53.17H102.885C103.127 53.17 103.249 53.04 103.249 52.78V51.155H103.015C102.945 51.3023 102.837 51.4497 102.69 51.597C102.542 51.7443 102.343 51.8657 102.092 51.961C101.84 52.0563 101.52 52.104 101.13 52.104C100.627 52.104 100.185 51.9913 99.8037 51.766C99.431 51.532 99.1407 51.2113 98.9327 50.804C98.7247 50.3967 98.6207 49.9287 98.6207 49.4V45.552H100.259V49.27C100.259 49.7553 100.376 50.1193 100.61 50.362C100.852 50.6047 101.195 50.726 101.637 50.726C102.139 50.726 102.529 50.5613 102.807 50.232C103.084 49.894 103.223 49.426 103.223 48.828V45.552H104.861V53.144C104.861 53.586 104.731 53.937 104.471 54.197C104.211 54.4657 103.864 54.6 103.431 54.6H99.3747ZM109.751 52.182C109.11 52.182 108.534 52.052 108.022 51.792C107.511 51.532 107.108 51.155 106.813 50.661C106.519 50.167 106.371 49.5733 106.371 48.88V48.672C106.371 47.9787 106.519 47.385 106.813 46.891C107.108 46.397 107.511 46.02 108.022 45.76C108.534 45.5 109.11 45.37 109.751 45.37C110.393 45.37 110.969 45.5 111.48 45.76C111.992 46.02 112.395 46.397 112.689 46.891C112.984 47.385 113.131 47.9787 113.131 48.672V48.88C113.131 49.5733 112.984 50.167 112.689 50.661C112.395 51.155 111.992 51.532 111.48 51.792C110.969 52.052 110.393 52.182 109.751 52.182ZM109.751 50.726C110.254 50.726 110.67 50.5657 110.999 50.245C111.329 49.9157 111.493 49.4477 111.493 48.841V48.711C111.493 48.1043 111.329 47.6407 110.999 47.32C110.679 46.9907 110.263 46.826 109.751 46.826C109.249 46.826 108.833 46.9907 108.503 47.32C108.174 47.6407 108.009 48.1043 108.009 48.711V48.841C108.009 49.4477 108.174 49.9157 108.503 50.245C108.833 50.5657 109.249 50.726 109.751 50.726ZM117.1 52.104C116.598 52.104 116.156 51.9913 115.774 51.766C115.402 51.532 115.111 51.2113 114.903 50.804C114.695 50.3967 114.591 49.9287 114.591 49.4V45.552H116.229V49.27C116.229 49.7553 116.346 50.1193 116.58 50.362C116.823 50.6047 117.165 50.726 117.607 50.726C118.11 50.726 118.5 50.5613 118.777 50.232C119.055 49.894 119.193 49.426 119.193 48.828V45.552H120.831V52H119.219V51.155H118.985C118.881 51.3717 118.686 51.584 118.4 51.792C118.114 52 117.681 52.104 117.1 52.104ZM128.984 52.182C128.36 52.182 127.792 52.052 127.281 51.792C126.778 51.532 126.38 51.155 126.085 50.661C125.79 50.167 125.643 49.569 125.643 48.867V48.685C125.643 47.983 125.79 47.385 126.085 46.891C126.38 46.397 126.778 46.02 127.281 45.76C127.792 45.5 128.36 45.37 128.984 45.37C129.599 45.37 130.128 45.4783 130.57 45.695C131.012 45.9117 131.367 46.2107 131.636 46.592C131.913 46.9647 132.095 47.3893 132.182 47.866L130.596 48.204C130.561 47.944 130.483 47.71 130.362 47.502C130.241 47.294 130.067 47.1293 129.842 47.008C129.625 46.8867 129.352 46.826 129.023 46.826C128.694 46.826 128.395 46.8997 128.126 47.047C127.866 47.1857 127.658 47.398 127.502 47.684C127.355 47.9613 127.281 48.3037 127.281 48.711V48.841C127.281 49.2483 127.355 49.595 127.502 49.881C127.658 50.1583 127.866 50.3707 128.126 50.518C128.395 50.6567 128.694 50.726 129.023 50.726C129.517 50.726 129.89 50.6003 130.141 50.349C130.401 50.089 130.566 49.751 130.635 49.335L132.221 49.712C132.108 50.1713 131.913 50.5917 131.636 50.973C131.367 51.3457 131.012 51.6403 130.57 51.857C130.128 52.0737 129.599 52.182 128.984 52.182ZM135.574 52.182C135.115 52.182 134.703 52.104 134.339 51.948C133.975 51.7833 133.685 51.5493 133.468 51.246C133.26 50.934 133.156 50.557 133.156 50.115C133.156 49.673 133.26 49.3047 133.468 49.01C133.685 48.7067 133.979 48.4813 134.352 48.334C134.733 48.178 135.167 48.1 135.652 48.1H137.42V47.736C137.42 47.4327 137.325 47.1857 137.134 46.995C136.943 46.7957 136.64 46.696 136.224 46.696C135.817 46.696 135.513 46.7913 135.314 46.982C135.115 47.164 134.985 47.4023 134.924 47.697L133.416 47.19C133.52 46.8607 133.685 46.5617 133.91 46.293C134.144 46.0157 134.452 45.7947 134.833 45.63C135.223 45.4567 135.695 45.37 136.25 45.37C137.099 45.37 137.771 45.5823 138.265 46.007C138.759 46.4317 139.006 47.047 139.006 47.853V50.258C139.006 50.518 139.127 50.648 139.37 50.648H139.89V52H138.798C138.477 52 138.213 51.922 138.005 51.766C137.797 51.61 137.693 51.402 137.693 51.142V51.129H137.446C137.411 51.233 137.333 51.3717 137.212 51.545C137.091 51.7097 136.9 51.857 136.64 51.987C136.38 52.117 136.025 52.182 135.574 52.182ZM135.86 50.856C136.319 50.856 136.692 50.7303 136.978 50.479C137.273 50.219 137.42 49.8767 137.42 49.452V49.322H135.769C135.466 49.322 135.227 49.387 135.054 49.517C134.881 49.647 134.794 49.829 134.794 50.063C134.794 50.297 134.885 50.4877 135.067 50.635C135.249 50.7823 135.513 50.856 135.86 50.856ZM141.088 52V45.552H142.7V46.397H142.934C143.038 46.1717 143.233 45.9593 143.519 45.76C143.805 45.552 144.238 45.448 144.819 45.448C145.321 45.448 145.759 45.565 146.132 45.799C146.513 46.0243 146.808 46.3407 147.016 46.748C147.224 47.1467 147.328 47.6147 147.328 48.152V52H145.69V48.282C145.69 47.7967 145.568 47.4327 145.326 47.19C145.092 46.9473 144.754 46.826 144.312 46.826C143.809 46.826 143.419 46.995 143.142 47.333C142.864 47.6623 142.726 48.126 142.726 48.724V52H141.088ZM13.51 72.182C12.9987 72.182 12.5177 72.0563 12.067 71.805C11.625 71.545 11.2697 71.168 11.001 70.674C10.7323 70.18 10.598 69.582 10.598 68.88V68.672C10.598 67.97 10.7323 67.372 11.001 66.878C11.2697 66.384 11.625 66.0113 12.067 65.76C12.509 65.5 12.99 65.37 13.51 65.37C13.9 65.37 14.225 65.4177 14.485 65.513C14.7537 65.5997 14.9703 65.7123 15.135 65.851C15.2997 65.9897 15.4253 66.137 15.512 66.293H15.746V62.9H17.384V72H15.772V71.22H15.538C15.3907 71.4627 15.161 71.6837 14.849 71.883C14.5457 72.0823 14.0993 72.182 13.51 72.182ZM14.004 70.752C14.5067 70.752 14.927 70.5917 15.265 70.271C15.603 69.9417 15.772 69.465 15.772 68.841V68.711C15.772 68.087 15.603 67.6147 15.265 67.294C14.9357 66.9647 14.5153 66.8 14.004 66.8C13.5013 66.8 13.081 66.9647 12.743 67.294C12.405 67.6147 12.236 68.087 12.236 68.711V68.841C12.236 69.465 12.405 69.9417 12.743 70.271C13.081 70.5917 13.5013 70.752 14.004 70.752ZM19.2 72V65.552H20.812V66.28H21.046C21.1414 66.02 21.2974 65.8293 21.514 65.708C21.7394 65.5867 21.9994 65.526 22.294 65.526H23.074V66.982H22.268C21.852 66.982 21.5097 67.0947 21.241 67.32C20.9724 67.5367 20.838 67.8747 20.838 68.334V72H19.2ZM26.204 72.182C25.7447 72.182 25.333 72.104 24.969 71.948C24.605 71.7833 24.3147 71.5493 24.098 71.246C23.89 70.934 23.786 70.557 23.786 70.115C23.786 69.673 23.89 69.3047 24.098 69.01C24.3147 68.7067 24.6093 68.4813 24.982 68.334C25.3633 68.178 25.7967 68.1 26.282 68.1H28.05V67.736C28.05 67.4327 27.9547 67.1857 27.764 66.995C27.5733 66.7957 27.27 66.696 26.854 66.696C26.4467 66.696 26.1433 66.7913 25.944 66.982C25.7447 67.164 25.6147 67.4023 25.554 67.697L24.046 67.19C24.15 66.8607 24.3147 66.5617 24.54 66.293C24.774 66.0157 25.0817 65.7947 25.463 65.63C25.853 65.4567 26.3253 65.37 26.88 65.37C27.7293 65.37 28.401 65.5823 28.895 66.007C29.389 66.4317 29.636 67.047 29.636 67.853V70.258C29.636 70.518 29.7573 70.648 30 70.648H30.52V72H29.428C29.1073 72 28.843 71.922 28.635 71.766C28.427 71.61 28.323 71.402 28.323 71.142V71.129H28.076C28.0413 71.233 27.9633 71.3717 27.842 71.545C27.7207 71.7097 27.53 71.857 27.27 71.987C27.01 72.117 26.6547 72.182 26.204 72.182ZM26.49 70.856C26.9493 70.856 27.322 70.7303 27.608 70.479C27.9027 70.219 28.05 69.8767 28.05 69.452V69.322H26.399C26.0957 69.322 25.8573 69.387 25.684 69.517C25.5107 69.647 25.424 69.829 25.424 70.063C25.424 70.297 25.515 70.4877 25.697 70.635C25.879 70.7823 26.1433 70.856 26.49 70.856ZM31.2787 68.802V68.594C31.2787 67.918 31.413 67.3417 31.6817 66.865C31.9503 66.3797 32.3057 66.0113 32.7477 65.76C33.1983 65.5 33.688 65.37 34.2167 65.37C34.806 65.37 35.2523 65.474 35.5557 65.682C35.859 65.89 36.08 66.1067 36.2187 66.332H36.4527V65.552H38.0647V73.144C38.0647 73.586 37.9347 73.937 37.6747 74.197C37.4147 74.4657 37.068 74.6 36.6347 74.6H32.3187V73.17H36.0627C36.3053 73.17 36.4267 73.04 36.4267 72.78V71.103H36.1927C36.106 71.2417 35.9847 71.3847 35.8287 71.532C35.6727 71.6707 35.4647 71.7877 35.2047 71.883C34.9447 71.9783 34.6153 72.026 34.2167 72.026C33.688 72.026 33.1983 71.9003 32.7477 71.649C32.3057 71.389 31.9503 71.0207 31.6817 70.544C31.413 70.0587 31.2787 69.478 31.2787 68.802ZM34.6847 70.596C35.1873 70.596 35.6077 70.4357 35.9457 70.115C36.2837 69.7943 36.4527 69.3437 36.4527 68.763V68.633C36.4527 68.0437 36.2837 67.593 35.9457 67.281C35.6163 66.9603 35.196 66.8 34.6847 66.8C34.182 66.8 33.7617 66.9603 33.4237 67.281C33.0857 67.593 32.9167 68.0437 32.9167 68.633V68.763C32.9167 69.3437 33.0857 69.7943 33.4237 70.115C33.7617 70.4357 34.182 70.596 34.6847 70.596ZM45.6515 72C45.2268 72 44.8802 71.87 44.6115 71.61C44.3515 71.3413 44.2215 70.986 44.2215 70.544V66.904H42.6095V65.552H44.2215V63.55H45.8595V65.552H47.6275V66.904H45.8595V70.258C45.8595 70.518 45.9808 70.648 46.2235 70.648H47.4715V72H45.6515ZM49.1102 72V62.9H50.7482V66.345H50.9822C51.0515 66.2063 51.1599 66.0677 51.3072 65.929C51.4545 65.7903 51.6495 65.6777 51.8922 65.591C52.1435 65.4957 52.4599 65.448 52.8412 65.448C53.3439 65.448 53.7815 65.565 54.1542 65.799C54.5355 66.0243 54.8302 66.3407 55.0382 66.748C55.2462 67.1467 55.3502 67.6147 55.3502 68.152V72H53.7122V68.282C53.7122 67.7967 53.5909 67.4327 53.3482 67.19C53.1142 66.9473 52.7762 66.826 52.3342 66.826C51.8315 66.826 51.4415 66.995 51.1642 67.333C50.8869 67.6623 50.7482 68.126 50.7482 68.724V72H49.1102ZM60.0589 72.182C59.4176 72.182 58.8499 72.0477 58.3559 71.779C57.8706 71.5017 57.4893 71.116 57.2119 70.622C56.9433 70.1193 56.8089 69.53 56.8089 68.854V68.698C56.8089 68.022 56.9433 67.437 57.2119 66.943C57.4806 66.4403 57.8576 66.0547 58.3429 65.786C58.8283 65.5087 59.3916 65.37 60.0329 65.37C60.6656 65.37 61.2159 65.513 61.6839 65.799C62.1519 66.0763 62.5159 66.4663 62.7759 66.969C63.0359 67.463 63.1659 68.0393 63.1659 68.698V69.257H58.4729C58.4903 69.699 58.6549 70.0587 58.9669 70.336C59.2789 70.6133 59.6603 70.752 60.1109 70.752C60.5703 70.752 60.9083 70.6523 61.1249 70.453C61.3416 70.2537 61.5063 70.0327 61.6189 69.79L62.9579 70.492C62.8366 70.7173 62.6589 70.9643 62.4249 71.233C62.1996 71.493 61.8963 71.7183 61.5149 71.909C61.1336 72.091 60.6483 72.182 60.0589 72.182ZM58.4859 68.035H61.5019C61.4673 67.6623 61.3156 67.3633 61.0469 67.138C60.7869 66.9127 60.4446 66.8 60.0199 66.8C59.5779 66.8 59.2269 66.9127 58.9669 67.138C58.7069 67.3633 58.5466 67.6623 58.4859 68.035ZM70.8626 72.182C70.2213 72.182 69.6536 72.0477 69.1596 71.779C68.6743 71.5017 68.293 71.116 68.0156 70.622C67.747 70.1193 67.6126 69.53 67.6126 68.854V68.698C67.6126 68.022 67.747 67.437 68.0156 66.943C68.2843 66.4403 68.6613 66.0547 69.1466 65.786C69.632 65.5087 70.1953 65.37 70.8366 65.37C71.4693 65.37 72.0196 65.513 72.4876 65.799C72.9556 66.0763 73.3196 66.4663 73.5796 66.969C73.8396 67.463 73.9696 68.0393 73.9696 68.698V69.257H69.2766C69.294 69.699 69.4586 70.0587 69.7706 70.336C70.0826 70.6133 70.464 70.752 70.9146 70.752C71.374 70.752 71.712 70.6523 71.9286 70.453C72.1453 70.2537 72.31 70.0327 72.4226 69.79L73.7616 70.492C73.6403 70.7173 73.4626 70.9643 73.2286 71.233C73.0033 71.493 72.7 71.7183 72.3186 71.909C71.9373 72.091 71.452 72.182 70.8626 72.182ZM69.2896 68.035H72.3056C72.271 67.6623 72.1193 67.3633 71.8506 67.138C71.5906 66.9127 71.2483 66.8 70.8236 66.8C70.3816 66.8 70.0306 66.9127 69.7706 67.138C69.5106 67.3633 69.3503 67.6623 69.2896 68.035ZM75.4276 72V62.9H77.0656V72H75.4276ZM81.8187 72.182C81.1774 72.182 80.6097 72.0477 80.1157 71.779C79.6304 71.5017 79.249 71.116 78.9717 70.622C78.703 70.1193 78.5687 69.53 78.5687 68.854V68.698C78.5687 68.022 78.703 67.437 78.9717 66.943C79.2404 66.4403 79.6174 66.0547 80.1027 65.786C80.588 65.5087 81.1514 65.37 81.7927 65.37C82.4254 65.37 82.9757 65.513 83.4437 65.799C83.9117 66.0763 84.2757 66.4663 84.5357 66.969C84.7957 67.463 84.9257 68.0393 84.9257 68.698V69.257H80.2327C80.25 69.699 80.4147 70.0587 80.7267 70.336C81.0387 70.6133 81.42 70.752 81.8707 70.752C82.33 70.752 82.668 70.6523 82.8847 70.453C83.1014 70.2537 83.266 70.0327 83.3787 69.79L84.7177 70.492C84.5964 70.7173 84.4187 70.9643 84.1847 71.233C83.9594 71.493 83.656 71.7183 83.2747 71.909C82.8934 72.091 82.408 72.182 81.8187 72.182ZM80.2457 68.035H83.2617C83.227 67.6623 83.0754 67.3633 82.8067 67.138C82.5467 66.9127 82.2044 66.8 81.7797 66.8C81.3377 66.8 80.9867 66.9127 80.7267 67.138C80.4667 67.3633 80.3064 67.6623 80.2457 68.035ZM86.3836 72V65.552H87.9956V66.254H88.2296C88.3423 66.0373 88.5286 65.851 88.7886 65.695C89.0486 65.5303 89.391 65.448 89.8156 65.448C90.275 65.448 90.6433 65.539 90.9206 65.721C91.198 65.8943 91.4103 66.124 91.5576 66.41H91.7916C91.939 66.1327 92.147 65.903 92.4156 65.721C92.6843 65.539 93.0656 65.448 93.5596 65.448C93.9583 65.448 94.318 65.5347 94.6386 65.708C94.968 65.8727 95.228 66.1283 95.4186 66.475C95.618 66.813 95.7176 67.242 95.7176 67.762V72H94.0796V67.879C94.0796 67.5237 93.9886 67.2593 93.8066 67.086C93.6246 66.904 93.369 66.813 93.0396 66.813C92.667 66.813 92.3766 66.9343 92.1686 67.177C91.9693 67.411 91.8696 67.749 91.8696 68.191V72H90.2316V67.879C90.2316 67.5237 90.1406 67.2593 89.9586 67.086C89.7766 66.904 89.521 66.813 89.1916 66.813C88.819 66.813 88.5286 66.9343 88.3206 67.177C88.1213 67.411 88.0216 67.749 88.0216 68.191V72H86.3836ZM100.417 72.182C99.776 72.182 99.2083 72.0477 98.7143 71.779C98.229 71.5017 97.8477 71.116 97.5703 70.622C97.3017 70.1193 97.1673 69.53 97.1673 68.854V68.698C97.1673 68.022 97.3017 67.437 97.5703 66.943C97.839 66.4403 98.216 66.0547 98.7013 65.786C99.1867 65.5087 99.75 65.37 100.391 65.37C101.024 65.37 101.574 65.513 102.042 65.799C102.51 66.0763 102.874 66.4663 103.134 66.969C103.394 67.463 103.524 68.0393 103.524 68.698V69.257H98.8313C98.8487 69.699 99.0133 70.0587 99.3253 70.336C99.6373 70.6133 100.019 70.752 100.469 70.752C100.929 70.752 101.267 70.6523 101.483 70.453C101.7 70.2537 101.865 70.0327 101.977 69.79L103.316 70.492C103.195 70.7173 103.017 70.9643 102.783 71.233C102.558 71.493 102.255 71.7183 101.873 71.909C101.492 72.091 101.007 72.182 100.417 72.182ZM98.8443 68.035H101.86C101.826 67.6623 101.674 67.3633 101.405 67.138C101.145 66.9127 100.803 66.8 100.378 66.8C99.9363 66.8 99.5853 66.9127 99.3253 67.138C99.0653 67.3633 98.905 67.6623 98.8443 68.035ZM104.982 72V65.552H106.594V66.397H106.828C106.932 66.1717 107.127 65.9593 107.413 65.76C107.699 65.552 108.133 65.448 108.713 65.448C109.216 65.448 109.654 65.565 110.026 65.799C110.408 66.0243 110.702 66.3407 110.91 66.748C111.118 67.1467 111.222 67.6147 111.222 68.152V72H109.584V68.282C109.584 67.7967 109.463 67.4327 109.22 67.19C108.986 66.9473 108.648 66.826 108.206 66.826C107.704 66.826 107.314 66.995 107.036 67.333C106.759 67.6623 106.62 68.126 106.62 68.724V72H104.982ZM115.285 72C114.861 72 114.514 71.87 114.245 71.61C113.985 71.3413 113.855 70.986 113.855 70.544V66.904H112.243V65.552H113.855V63.55H115.493V65.552H117.261V66.904H115.493V70.258C115.493 70.518 115.615 70.648 115.857 70.648H117.105V72H115.285ZM121.422 72.182C120.581 72.182 119.892 72 119.355 71.636C118.818 71.272 118.493 70.752 118.38 70.076L119.888 69.686C119.949 69.9893 120.048 70.2277 120.187 70.401C120.334 70.5743 120.512 70.7 120.72 70.778C120.937 70.8473 121.171 70.882 121.422 70.882C121.803 70.882 122.085 70.817 122.267 70.687C122.449 70.5483 122.54 70.3793 122.54 70.18C122.54 69.9807 122.453 69.829 122.28 69.725C122.107 69.6123 121.829 69.5213 121.448 69.452L121.084 69.387C120.633 69.3003 120.222 69.1833 119.849 69.036C119.476 68.88 119.177 68.6677 118.952 68.399C118.727 68.1303 118.614 67.7837 118.614 67.359C118.614 66.7177 118.848 66.228 119.316 65.89C119.784 65.5433 120.399 65.37 121.162 65.37C121.881 65.37 122.479 65.5303 122.956 65.851C123.433 66.1717 123.745 66.592 123.892 67.112L122.371 67.58C122.302 67.2507 122.159 67.0167 121.942 66.878C121.734 66.7393 121.474 66.67 121.162 66.67C120.85 66.67 120.612 66.7263 120.447 66.839C120.282 66.943 120.2 67.0903 120.2 67.281C120.2 67.489 120.287 67.645 120.46 67.749C120.633 67.8443 120.867 67.918 121.162 67.97L121.526 68.035C122.011 68.1217 122.449 68.2387 122.839 68.386C123.238 68.5247 123.55 68.7283 123.775 68.997C124.009 69.257 124.126 69.6123 124.126 70.063C124.126 70.739 123.879 71.2633 123.385 71.636C122.9 72 122.245 72.182 121.422 72.182ZM130.864 72.182C130.405 72.182 129.993 72.104 129.629 71.948C129.265 71.7833 128.975 71.5493 128.758 71.246C128.55 70.934 128.446 70.557 128.446 70.115C128.446 69.673 128.55 69.3047 128.758 69.01C128.975 68.7067 129.269 68.4813 129.642 68.334C130.023 68.178 130.457 68.1 130.942 68.1H132.71V67.736C132.71 67.4327 132.615 67.1857 132.424 66.995C132.233 66.7957 131.93 66.696 131.514 66.696C131.107 66.696 130.803 66.7913 130.604 66.982C130.405 67.164 130.275 67.4023 130.214 67.697L128.706 67.19C128.81 66.8607 128.975 66.5617 129.2 66.293C129.434 66.0157 129.742 65.7947 130.123 65.63C130.513 65.4567 130.985 65.37 131.54 65.37C132.389 65.37 133.061 65.5823 133.555 66.007C134.049 66.4317 134.296 67.047 134.296 67.853V70.258C134.296 70.518 134.417 70.648 134.66 70.648H135.18V72H134.088C133.767 72 133.503 71.922 133.295 71.766C133.087 71.61 132.983 71.402 132.983 71.142V71.129H132.736C132.701 71.233 132.623 71.3717 132.502 71.545C132.381 71.7097 132.19 71.857 131.93 71.987C131.67 72.117 131.315 72.182 130.864 72.182ZM131.15 70.856C131.609 70.856 131.982 70.7303 132.268 70.479C132.563 70.219 132.71 69.8767 132.71 69.452V69.322H131.059C130.756 69.322 130.517 69.387 130.344 69.517C130.171 69.647 130.084 69.829 130.084 70.063C130.084 70.297 130.175 70.4877 130.357 70.635C130.539 70.7823 130.803 70.856 131.15 70.856ZM136.378 72V65.552H137.99V66.28H138.224C138.319 66.02 138.475 65.8293 138.692 65.708C138.917 65.5867 139.177 65.526 139.472 65.526H140.252V66.982H139.446C139.03 66.982 138.687 67.0947 138.419 67.32C138.15 67.5367 138.016 67.8747 138.016 68.334V72H136.378ZM144.372 72.182C143.73 72.182 143.154 72.052 142.643 71.792C142.131 71.532 141.728 71.155 141.434 70.661C141.139 70.167 140.992 69.5733 140.992 68.88V68.672C140.992 67.9787 141.139 67.385 141.434 66.891C141.728 66.397 142.131 66.02 142.643 65.76C143.154 65.5 143.73 65.37 144.372 65.37C145.013 65.37 145.589 65.5 146.101 65.76C146.612 66.02 147.015 66.397 147.31 66.891C147.604 67.385 147.752 67.9787 147.752 68.672V68.88C147.752 69.5733 147.604 70.167 147.31 70.661C147.015 71.155 146.612 71.532 146.101 71.792C145.589 72.052 145.013 72.182 144.372 72.182ZM144.372 70.726C144.874 70.726 145.29 70.5657 145.62 70.245C145.949 69.9157 146.114 69.4477 146.114 68.841V68.711C146.114 68.1043 145.949 67.6407 145.62 67.32C145.299 66.9907 144.883 66.826 144.372 66.826C143.869 66.826 143.453 66.9907 143.124 67.32C142.794 67.6407 142.63 68.1043 142.63 68.711V68.841C142.63 69.4477 142.794 69.9157 143.124 70.245C143.453 70.5657 143.869 70.726 144.372 70.726ZM151.721 72.104C151.218 72.104 150.776 71.9913 150.395 71.766C150.022 71.532 149.732 71.2113 149.524 70.804C149.316 70.3967 149.212 69.9287 149.212 69.4V65.552H150.85V69.27C150.85 69.7553 150.967 70.1193 151.201 70.362C151.443 70.6047 151.786 70.726 152.228 70.726C152.73 70.726 153.12 70.5613 153.398 70.232C153.675 69.894 153.814 69.426 153.814 68.828V65.552H155.452V72H153.84V71.155H153.606C153.502 71.3717 153.307 71.584 153.021 71.792C152.735 72 152.301 72.104 151.721 72.104ZM157.274 72V65.552H158.886V66.397H159.12C159.224 66.1717 159.419 65.9593 159.705 65.76C159.991 65.552 160.425 65.448 161.005 65.448C161.508 65.448 161.946 65.565 162.318 65.799C162.7 66.0243 162.994 66.3407 163.202 66.748C163.41 67.1467 163.514 67.6147 163.514 68.152V72H161.876V68.282C161.876 67.7967 161.755 67.4327 161.512 67.19C161.278 66.9473 160.94 66.826 160.498 66.826C159.996 66.826 159.606 66.995 159.328 67.333C159.051 67.6623 158.912 68.126 158.912 68.724V72H157.274ZM167.885 72.182C167.374 72.182 166.893 72.0563 166.442 71.805C166 71.545 165.645 71.168 165.376 70.674C165.107 70.18 164.973 69.582 164.973 68.88V68.672C164.973 67.97 165.107 67.372 165.376 66.878C165.645 66.384 166 66.0113 166.442 65.76C166.884 65.5 167.365 65.37 167.885 65.37C168.275 65.37 168.6 65.4177 168.86 65.513C169.129 65.5997 169.345 65.7123 169.51 65.851C169.675 65.9897 169.8 66.137 169.887 66.293H170.121V62.9H171.759V72H170.147V71.22H169.913C169.766 71.4627 169.536 71.6837 169.224 71.883C168.921 72.0823 168.474 72.182 167.885 72.182ZM168.379 70.752C168.882 70.752 169.302 70.5917 169.64 70.271C169.978 69.9417 170.147 69.465 170.147 68.841V68.711C170.147 68.087 169.978 67.6147 169.64 67.294C169.311 66.9647 168.89 66.8 168.379 66.8C167.876 66.8 167.456 66.9647 167.118 67.294C166.78 67.6147 166.611 68.087 166.611 68.711V68.841C166.611 69.465 166.78 69.9417 167.118 70.271C167.456 70.5917 167.876 70.752 168.379 70.752ZM13.38 92C12.9553 92 12.6087 91.87 12.34 91.61C12.08 91.3413 11.95 90.986 11.95 90.544V86.904H10.338V85.552H11.95V83.55H13.588V85.552H15.356V86.904H13.588V90.258C13.588 90.518 13.7093 90.648 13.952 90.648H15.2V92H13.38ZM16.8387 92V82.9H18.4767V86.345H18.7107C18.78 86.2063 18.8884 86.0677 19.0357 85.929C19.183 85.7903 19.378 85.6777 19.6207 85.591C19.872 85.4957 20.1884 85.448 20.5697 85.448C21.0724 85.448 21.51 85.565 21.8827 85.799C22.264 86.0243 22.5587 86.3407 22.7667 86.748C22.9747 87.1467 23.0787 87.6147 23.0787 88.152V92H21.4407V88.282C21.4407 87.7967 21.3194 87.4327 21.0767 87.19C20.8427 86.9473 20.5047 86.826 20.0627 86.826C19.56 86.826 19.17 86.995 18.8927 87.333C18.6154 87.6623 18.4767 88.126 18.4767 88.724V92H16.8387ZM27.7875 92.182C27.1461 92.182 26.5785 92.0477 26.0845 91.779C25.5991 91.5017 25.2178 91.116 24.9405 90.622C24.6718 90.1193 24.5375 89.53 24.5375 88.854V88.698C24.5375 88.022 24.6718 87.437 24.9405 86.943C25.2091 86.4403 25.5861 86.0547 26.0715 85.786C26.5568 85.5087 27.1201 85.37 27.7615 85.37C28.3941 85.37 28.9445 85.513 29.4125 85.799C29.8805 86.0763 30.2445 86.4663 30.5045 86.969C30.7645 87.463 30.8945 88.0393 30.8945 88.698V89.257H26.2015C26.2188 89.699 26.3835 90.0587 26.6955 90.336C27.0075 90.6133 27.3888 90.752 27.8395 90.752C28.2988 90.752 28.6368 90.6523 28.8535 90.453C29.0701 90.2537 29.2348 90.0327 29.3475 89.79L30.6865 90.492C30.5651 90.7173 30.3875 90.9643 30.1535 91.233C29.9281 91.493 29.6248 91.7183 29.2435 91.909C28.8621 92.091 28.3768 92.182 27.7875 92.182ZM26.2145 88.035H29.2305C29.1958 87.6623 29.0441 87.3633 28.7755 87.138C28.5155 86.9127 28.1731 86.8 27.7485 86.8C27.3065 86.8 26.9555 86.9127 26.6955 87.138C26.4355 87.3633 26.2751 87.6623 26.2145 88.035ZM35.6532 94.6V85.552H37.2652V86.332H37.4992C37.6465 86.0807 37.8762 85.8597 38.1882 85.669C38.5002 85.4697 38.9465 85.37 39.5272 85.37C40.0472 85.37 40.5282 85.5 40.9702 85.76C41.4122 86.0113 41.7675 86.384 42.0362 86.878C42.3048 87.372 42.4392 87.97 42.4392 88.672V88.88C42.4392 89.582 42.3048 90.18 42.0362 90.674C41.7675 91.168 41.4122 91.545 40.9702 91.805C40.5282 92.0563 40.0472 92.182 39.5272 92.182C39.1372 92.182 38.8078 92.1343 38.5392 92.039C38.2792 91.9523 38.0668 91.8397 37.9022 91.701C37.7462 91.5537 37.6205 91.4063 37.5252 91.259H37.2912V94.6H35.6532ZM39.0332 90.752C39.5445 90.752 39.9648 90.5917 40.2942 90.271C40.6322 89.9417 40.8012 89.465 40.8012 88.841V88.711C40.8012 88.087 40.6322 87.6147 40.2942 87.294C39.9562 86.9647 39.5358 86.8 39.0332 86.8C38.5305 86.8 38.1102 86.9647 37.7722 87.294C37.4342 87.6147 37.2652 88.087 37.2652 88.711V88.841C37.2652 89.465 37.4342 89.9417 37.7722 90.271C38.1102 90.5917 38.5305 90.752 39.0332 90.752ZM43.9432 92V85.552H45.5812V92H43.9432ZM44.7622 84.798C44.4675 84.798 44.2162 84.7027 44.0082 84.512C43.8089 84.3213 43.7092 84.07 43.7092 83.758C43.7092 83.446 43.8089 83.1947 44.0082 83.004C44.2162 82.8133 44.4675 82.718 44.7622 82.718C45.0655 82.718 45.3169 82.8133 45.5162 83.004C45.7155 83.1947 45.8152 83.446 45.8152 83.758C45.8152 84.07 45.7155 84.3213 45.5162 84.512C45.3169 84.7027 45.0655 84.798 44.7622 84.798ZM47.3963 92V85.552H49.0083V86.397H49.2423C49.3463 86.1717 49.5413 85.9593 49.8273 85.76C50.1133 85.552 50.5467 85.448 51.1273 85.448C51.63 85.448 52.0677 85.565 52.4403 85.799C52.8217 86.0243 53.1163 86.3407 53.3243 86.748C53.5323 87.1467 53.6363 87.6147 53.6363 88.152V92H51.9983V88.282C51.9983 87.7967 51.877 87.4327 51.6343 87.19C51.4003 86.9473 51.0623 86.826 50.6203 86.826C50.1177 86.826 49.7277 86.995 49.4503 87.333C49.173 87.6623 49.0343 88.126 49.0343 88.724V92H47.3963ZM55.4071 92V82.9H57.0451V87.931H57.2791L59.4111 85.552H61.5431L58.5661 88.672L61.6471 92H59.5411L57.2791 89.439H57.0451V92H55.4071ZM66.0457 92V85.552H67.6577V86.28H67.8917C67.9871 86.02 68.1431 85.8293 68.3597 85.708C68.5851 85.5867 68.8451 85.526 69.1397 85.526H69.9197V86.982H69.1137C68.6977 86.982 68.3554 87.0947 68.0867 87.32C67.8181 87.5367 67.6837 87.8747 67.6837 88.334V92H66.0457ZM73.9095 92.182C73.2682 92.182 72.7005 92.0477 72.2065 91.779C71.7212 91.5017 71.3399 91.116 71.0625 90.622C70.7939 90.1193 70.6595 89.53 70.6595 88.854V88.698C70.6595 88.022 70.7939 87.437 71.0625 86.943C71.3312 86.4403 71.7082 86.0547 72.1935 85.786C72.6789 85.5087 73.2422 85.37 73.8835 85.37C74.5162 85.37 75.0665 85.513 75.5345 85.799C76.0025 86.0763 76.3665 86.4663 76.6265 86.969C76.8865 87.463 77.0165 88.0393 77.0165 88.698V89.257H72.3235C72.3409 89.699 72.5055 90.0587 72.8175 90.336C73.1295 90.6133 73.5109 90.752 73.9615 90.752C74.4209 90.752 74.7589 90.6523 74.9755 90.453C75.1922 90.2537 75.3569 90.0327 75.4695 89.79L76.8085 90.492C76.6872 90.7173 76.5095 90.9643 76.2755 91.233C76.0502 91.493 75.7469 91.7183 75.3655 91.909C74.9842 92.091 74.4989 92.182 73.9095 92.182ZM72.3365 88.035H75.3525C75.3179 87.6623 75.1662 87.3633 74.8975 87.138C74.6375 86.9127 74.2952 86.8 73.8705 86.8C73.4285 86.8 73.0775 86.9127 72.8175 87.138C72.5575 87.3633 72.3972 87.6623 72.3365 88.035ZM81.5035 92.182C80.8795 92.182 80.3118 92.052 79.8005 91.792C79.2978 91.532 78.8991 91.155 78.6045 90.661C78.3098 90.167 78.1625 89.569 78.1625 88.867V88.685C78.1625 87.983 78.3098 87.385 78.6045 86.891C78.8991 86.397 79.2978 86.02 79.8005 85.76C80.3118 85.5 80.8795 85.37 81.5035 85.37C82.1188 85.37 82.6475 85.4783 83.0895 85.695C83.5315 85.9117 83.8868 86.2107 84.1555 86.592C84.4328 86.9647 84.6148 87.3893 84.7015 87.866L83.1155 88.204C83.0808 87.944 83.0028 87.71 82.8815 87.502C82.7601 87.294 82.5868 87.1293 82.3615 87.008C82.1448 86.8867 81.8718 86.826 81.5425 86.826C81.2131 86.826 80.9141 86.8997 80.6455 87.047C80.3855 87.1857 80.1775 87.398 80.0215 87.684C79.8741 87.9613 79.8005 88.3037 79.8005 88.711V88.841C79.8005 89.2483 79.8741 89.595 80.0215 89.881C80.1775 90.1583 80.3855 90.3707 80.6455 90.518C80.9141 90.6567 81.2131 90.726 81.5425 90.726C82.0365 90.726 82.4091 90.6003 82.6605 90.349C82.9205 90.089 83.0851 89.751 83.1545 89.335L84.7405 89.712C84.6278 90.1713 84.4328 90.5917 84.1555 90.973C83.8868 91.3457 83.5315 91.6403 83.0895 91.857C82.6475 92.0737 82.1188 92.182 81.5035 92.182ZM88.3458 92C87.9212 92 87.5745 91.87 87.3058 91.61C87.0458 91.3413 86.9158 90.986 86.9158 90.544V86.904H85.3038V85.552H86.9158V83.55H88.5538V85.552H90.3218V86.904H88.5538V90.258C88.5538 90.518 88.6752 90.648 88.9178 90.648H90.1658V92H88.3458ZM93.8065 92.182C93.3472 92.182 92.9355 92.104 92.5715 91.948C92.2075 91.7833 91.9172 91.5493 91.7005 91.246C91.4925 90.934 91.3885 90.557 91.3885 90.115C91.3885 89.673 91.4925 89.3047 91.7005 89.01C91.9172 88.7067 92.2119 88.4813 92.5845 88.334C92.9659 88.178 93.3992 88.1 93.8845 88.1H95.6525V87.736C95.6525 87.4327 95.5572 87.1857 95.3665 86.995C95.1759 86.7957 94.8725 86.696 94.4565 86.696C94.0492 86.696 93.7459 86.7913 93.5465 86.982C93.3472 87.164 93.2172 87.4023 93.1565 87.697L91.6485 87.19C91.7525 86.8607 91.9172 86.5617 92.1425 86.293C92.3765 86.0157 92.6842 85.7947 93.0655 85.63C93.4555 85.4567 93.9279 85.37 94.4825 85.37C95.3319 85.37 96.0035 85.5823 96.4975 86.007C96.9915 86.4317 97.2385 87.047 97.2385 87.853V90.258C97.2385 90.518 97.3599 90.648 97.6025 90.648H98.1225V92H97.0305C96.7099 92 96.4455 91.922 96.2375 91.766C96.0295 91.61 95.9255 91.402 95.9255 91.142V91.129H95.6785C95.6439 91.233 95.5659 91.3717 95.4445 91.545C95.3232 91.7097 95.1325 91.857 94.8725 91.987C94.6125 92.117 94.2572 92.182 93.8065 92.182ZM94.0925 90.856C94.5519 90.856 94.9245 90.7303 95.2105 90.479C95.5052 90.219 95.6525 89.8767 95.6525 89.452V89.322H94.0015C93.6982 89.322 93.4599 89.387 93.2865 89.517C93.1132 89.647 93.0265 89.829 93.0265 90.063C93.0265 90.297 93.1175 90.4877 93.2995 90.635C93.4815 90.7823 93.7459 90.856 94.0925 90.856ZM99.3202 92V85.552H100.932V86.397H101.166C101.27 86.1717 101.465 85.9593 101.751 85.76C102.037 85.552 102.47 85.448 103.051 85.448C103.554 85.448 103.991 85.565 104.364 85.799C104.745 86.0243 105.04 86.3407 105.248 86.748C105.456 87.1467 105.56 87.6147 105.56 88.152V92H103.922V88.282C103.922 87.7967 103.801 87.4327 103.558 87.19C103.324 86.9473 102.986 86.826 102.544 86.826C102.041 86.826 101.651 86.995 101.374 87.333C101.097 87.6623 100.958 88.126 100.958 88.724V92H99.3202ZM107.019 88.802V88.594C107.019 87.918 107.153 87.3417 107.422 86.865C107.691 86.3797 108.046 86.0113 108.488 85.76C108.939 85.5 109.428 85.37 109.957 85.37C110.546 85.37 110.993 85.474 111.296 85.682C111.599 85.89 111.82 86.1067 111.959 86.332H112.193V85.552H113.805V93.144C113.805 93.586 113.675 93.937 113.415 94.197C113.155 94.4657 112.808 94.6 112.375 94.6H108.059V93.17H111.803C112.046 93.17 112.167 93.04 112.167 92.78V91.103H111.933C111.846 91.2417 111.725 91.3847 111.569 91.532C111.413 91.6707 111.205 91.7877 110.945 91.883C110.685 91.9783 110.356 92.026 109.957 92.026C109.428 92.026 108.939 91.9003 108.488 91.649C108.046 91.389 107.691 91.0207 107.422 90.544C107.153 90.0587 107.019 89.478 107.019 88.802ZM110.425 90.596C110.928 90.596 111.348 90.4357 111.686 90.115C112.024 89.7943 112.193 89.3437 112.193 88.763V88.633C112.193 88.0437 112.024 87.593 111.686 87.281C111.357 86.9603 110.936 86.8 110.425 86.8C109.922 86.8 109.502 86.9603 109.164 87.281C108.826 87.593 108.657 88.0437 108.657 88.633V88.763C108.657 89.3437 108.826 89.7943 109.164 90.115C109.502 90.4357 109.922 90.596 110.425 90.596ZM115.621 92V82.9H117.259V92H115.621ZM122.012 92.182C121.371 92.182 120.803 92.0477 120.309 91.779C119.824 91.5017 119.442 91.116 119.165 90.622C118.896 90.1193 118.762 89.53 118.762 88.854V88.698C118.762 88.022 118.896 87.437 119.165 86.943C119.434 86.4403 119.811 86.0547 120.296 85.786C120.781 85.5087 121.345 85.37 121.986 85.37C122.619 85.37 123.169 85.513 123.637 85.799C124.105 86.0763 124.469 86.4663 124.729 86.969C124.989 87.463 125.119 88.0393 125.119 88.698V89.257H120.426C120.443 89.699 120.608 90.0587 120.92 90.336C121.232 90.6133 121.613 90.752 122.064 90.752C122.523 90.752 122.861 90.6523 123.078 90.453C123.295 90.2537 123.459 90.0327 123.572 89.79L124.911 90.492C124.79 90.7173 124.612 90.9643 124.378 91.233C124.153 91.493 123.849 91.7183 123.468 91.909C123.087 92.091 122.601 92.182 122.012 92.182ZM120.439 88.035H123.455C123.42 87.6623 123.269 87.3633 123 87.138C122.74 86.9127 122.398 86.8 121.973 86.8C121.531 86.8 121.18 86.9127 120.92 87.138C120.66 87.3633 120.5 87.6623 120.439 88.035Z" fill="#D875C7"/>
</svg>
